<?xml version="1.0" encoding="utf-8"?>
<!-- Generator: Adobe Illustrator 27.2.0, SVG Export Plug-In . SVG Version: 6.00 Build 0)  -->
<svg version="1.1" id="Layer_1" xmlns="http://www.w3.org/2000/svg" xmlns:xlink="http://www.w3.org/1999/xlink" x="0px" y="0px"
	 viewBox="0 0 500 55" style="enable-background:new 0 0 500 55;" xml:space="preserve">
<style type="text/css">
	.st0{opacity:0.4;}
	.st1{filter:url(#Adobe_OpacityMaskFilter);}
	
		.st2{clip-path:url(#SVGID_00000021109819181179334020000004476378782677609641_);fill:url(#SVGID_00000176755800415155107660000002488944457083480735_);}
	
		.st3{clip-path:url(#SVGID_00000021109819181179334020000004476378782677609641_);mask:url(#SVGID_00000172431107781881563280000000929169290001213336_);}
	.st4{fill:none;stroke:#FFFFFF;stroke-width:7;stroke-miterlimit:10;}
	.st5{fill:#FFFFFF;}
</style>
<g class="st0">
	<defs>
		<rect id="SVGID_1_" x="0" y="0" class="st0" width="500" height="55"/>
	</defs>
	<clipPath id="SVGID_00000083052676578465592800000001637226645873106619_">
		<use xlink:href="#SVGID_1_"  style="overflow:visible;"/>
	</clipPath>
	<defs>
		<filter id="Adobe_OpacityMaskFilter" filterUnits="userSpaceOnUse" x="49.1" y="-7.1" width="410.1" height="145">
			<feColorMatrix  type="matrix" values="1 0 0 0 0  0 1 0 0 0  0 0 1 0 0  0 0 0 1 0"/>
		</filter>
	</defs>
	
		<mask maskUnits="userSpaceOnUse" x="49.1" y="-7.1" width="410.1" height="145" id="SVGID_00000137107633366610960870000011711109349849430153_">
		<g class="st1">
			
				<radialGradient id="SVGID_00000071536715813694816080000005275995914031040165_" cx="250" cy="-0.5792" r="393.4213" gradientUnits="userSpaceOnUse">
				<stop  offset="0" style="stop-color:#B3B3B3"/>
				<stop  offset="7.279748e-02" style="stop-color:#8D8D8D"/>
				<stop  offset="0.16" style="stop-color:#686868"/>
				<stop  offset="0.2544" style="stop-color:#484848"/>
				<stop  offset="0.3558" style="stop-color:#2D2D2D"/>
				<stop  offset="0.4668" style="stop-color:#191919"/>
				<stop  offset="0.5925" style="stop-color:#0B0B0B"/>
				<stop  offset="0.7451" style="stop-color:#030303"/>
				<stop  offset="1" style="stop-color:#000000"/>
			</radialGradient>
			
				<path style="clip-path:url(#SVGID_00000083052676578465592800000001637226645873106619_);fill:url(#SVGID_00000071536715813694816080000005275995914031040165_);" d="
				M-122,55.1h744c14.4,0,26.2-11.7,26.2-26.2v-2.9c0-14.4-11.7-26.2-26.2-26.2h-744c-14.4,0-26.2,11.7-26.2,26.2v2.9
				C-148.1,43.4-136.4,55.1-122,55.1z"/>
		</g>
	</mask>
	
		<g style="clip-path:url(#SVGID_00000083052676578465592800000001637226645873106619_);mask:url(#SVGID_00000137107633366610960870000011711109349849430153_);">
		<circle class="st4" cx="90.4" cy="6.4" r="10"/>
		<path class="st4" d="M80.4,6.4c0,0-12.2,2.5-25.5,19.4"/>
		<circle class="st5" cx="54.9" cy="27.7" r="5.8"/>
		<circle class="st5" cx="104.9" cy="33.5" r="5.8"/>
		<circle class="st5" cx="126.6" cy="19.2" r="5.8"/>
		<circle class="st5" cx="416.2" cy="13.4" r="5.8"/>
		<path class="st4" d="M104.9,33.5c0,0-15.8,6-25.6,27.5"/>
		<path class="st4" d="M333.8-6.9c0,39.3-31.9,71.2-71.2,71.2"/>
		<path class="st4" d="M369.3,75.3c0-23.9,19.4-43.2,43.2-43.2s43.2,19.4,43.2,43.2"/>
		<path class="st4" d="M343,86.6c0-40.4,32.8-73.2,73.2-73.2"/>
		<path class="st4" d="M82.5,137.9c0-65.9,53.4-119.4,119.4-119.4s119.4,53.4,119.4,119.4"/>
	</g>
</g>
</svg>
