<?xml version="1.0" encoding="utf-8"?>
<!-- Generator: Adobe Illustrator 27.1.1, SVG Export Plug-In . SVG Version: 6.00 Build 0)  -->
<svg version="1.1" id="Layer_1" xmlns="http://www.w3.org/2000/svg" xmlns:xlink="http://www.w3.org/1999/xlink" x="0px" y="0px"
	 viewBox="0 0 500 105" style="enable-background:new 0 0 500 105;" xml:space="preserve">
<style type="text/css">
	.st0{fill:#FFFFFF;}
	.st1{fill:#FF3B3B;}
</style>
<g>
	<g>
		<path class="st0" d="M26,78.3c0.5-2.6-0.9-4.5-4.1-5.9L16.3,70C8.5,66.5,4.7,61.8,5.1,55.7C5.3,53,6.2,50.5,8,48.4
			c1.7-2.2,4.2-3.8,7.2-5c3.1-1.2,6.4-1.8,10.1-1.7c4.9,0.1,8.8,1.5,11.8,4.3s4.4,6.5,4.4,11.1H29.9c0.1-1.9-0.3-3.4-1.2-4.6
			c-0.9-1.1-2.3-1.7-4.3-1.8c-1.9,0-3.7,0.4-5.2,1.4c-1.5,1-2.4,2.2-2.6,3.8c-0.4,2.3,1.2,4.1,5,5.6c3.8,1.4,6.5,2.7,8.3,3.7
			c5.4,3.2,7.9,7.6,7.6,13.1c-0.2,2.9-1.1,5.3-2.7,7.5c-1.7,2.1-3.9,3.8-6.9,5c-2.9,1.2-6.2,1.7-9.9,1.7c-2.7,0-5.1-0.5-7.4-1.3
			c-2.3-0.8-4.2-1.9-5.9-3.5c-3.3-3.1-4.9-7.1-4.7-12l11.6,0c-0.1,2.5,0.4,4.4,1.5,5.8s3,2,5.6,2c1.9,0,3.6-0.4,4.9-1.3
			C24.9,81.1,25.7,79.9,26,78.3z"/>
		<path class="st0" d="M51.1,59c2.7-3.2,5.9-4.8,9.5-4.7c3.7,0.1,6.4,1.4,8.2,4c1.8,2.6,2.4,6.1,1.9,10.6l-3.8,22.8H55.7l3.8-23
			c0.1-0.8,0.1-1.5,0.1-2.2c-0.2-2.2-1.4-3.4-3.7-3.5c-2,0-3.8,0.7-5.4,2.2l-4.7,26.4H34.7l9.1-52.1h11.2L51.1,59z"/>
		<path class="st0" d="M90.1,87.7c-2.7,3.2-6,4.8-9.9,4.7c-3.6,0-6.3-1.3-8.1-3.8c-1.8-2.5-2.5-5.8-2.1-9.9l4-23.7h11.2l-4,23.9
			c-0.1,0.7-0.1,1.3,0,1.8c0.2,1.9,1.3,2.8,3.3,2.9c2.4,0.1,4.4-0.8,6-2.8L94.9,55h11.2l-6.4,36.7H89.4L90.1,87.7z"/>
		<path class="st0" d="M111.6,91.7h-11.2l9-52.1h11.2L111.6,91.7z"/>
		<path class="st0" d="M129.8,78.1l-4.1,3.5l-1.7,10h-11.2l9.1-52.1h11.2l-5.2,27.8l1.4-1.6L139.4,55h14.1L138,70.6l9.5,21.1h-12.2
			L129.8,78.1z"/>
	</g>
	<g>
		<path class="st0" d="M247.5,58.6l10.4-16.4h13.8l-17.6,25l9.7,24.4h-12.9L245.5,75l-10.7,16.7H221l18-25.4l-9.4-24h12.7
			L247.5,58.6z"/>
		<path class="st0" d="M278.7,92.3c-3.3,0-6.2-0.8-8.8-2.3c-2.6-1.5-4.5-3.7-5.8-6.4c-1.3-2.7-1.8-5.7-1.6-9l0.1-1
			c0.6-6,2.7-10.8,6.3-14.3c3.6-3.5,8-5.2,13.2-5.1c3.1,0,5.8,0.8,8.1,2.4c2.2,1.6,3.9,3.7,4.9,6.4c1,2.7,1.4,5.8,1,9.2l-0.6,4.7
			h-21.8c0,1.9,0.6,3.5,1.6,4.7c1,1.2,2.6,1.8,4.5,1.9c3.2,0.1,6.1-1.2,8.7-3.7l4.7,6.2c-1.4,2-3.3,3.5-5.8,4.6
			c-2.5,1.1-5.2,1.7-8.1,1.7H278.7z M281.4,63.1c-1.6,0-3,0.4-4.1,1.5c-1.2,1-2.2,2.8-3,5.2h11.2l0.2-1c0.1-0.8,0.2-1.5,0.1-2.2
			C285.3,64.3,283.9,63.2,281.4,63.1z"/>
		<path class="st0" d="M308.2,54.9l-0.8,4.4c2.9-3.5,6.5-5.2,10.6-5.1c3.4,0.1,5.9,1.3,7.6,3.8c1.7,2.5,2.3,6,1.8,10.5l-3.9,23.1
			h-11.2l3.9-23.2c0.1-0.8,0.1-1.5,0.1-2.2c-0.2-2.2-1.4-3.2-3.8-3.2c-2,0-3.8,0.8-5.4,2.6l-4.6,26h-11.2l6.4-36.7L308.2,54.9z"/>
		<path class="st0" d="M345.4,54.3c3.3,0,6.1,0.9,8.5,2.5c2.4,1.6,4.2,3.8,5.3,6.7c1.1,2.8,1.5,6,1.2,9.5l-0.1,0.7
			c-0.6,5.6-2.7,10.2-6.3,13.6c-3.6,3.5-7.9,5.1-13.2,5.1c-3.3,0-6.1-0.9-8.4-2.4c-2.4-1.6-4.1-3.8-5.3-6.6c-1.1-2.8-1.6-6-1.2-9.4
			c0.6-6,2.6-10.8,6.2-14.4C335.7,55.9,340.2,54.2,345.4,54.3z M337.1,73.9l-0.1,2c-0.3,5,1.2,7.6,4.6,7.7c4.4,0.1,6.9-3.4,7.6-10.7
			l0.1-3.1c0-2-0.3-3.7-1.1-4.9c-0.8-1.2-2-1.8-3.5-1.9c-2.1-0.1-3.7,0.8-5.1,2.5C338.3,67.4,337.5,70.1,337.1,73.9z"/>
		<path class="st0" d="M392.6,73.4c-0.7,5.9-2.5,10.6-5.3,14c-2.8,3.4-6.5,5.1-11.1,5c-3.6-0.1-6.4-1.6-8.3-4.5l-1.4,3.8h-10.1
			l9.1-52.1h11.2L373,58c2.5-2.5,5.2-3.7,8.2-3.7c3.6,0,6.4,1.3,8.4,3.9c2,2.5,3.1,6,3.2,10.3c0,1.4,0,2.9-0.2,4.2L392.6,73.4z
			 M381.5,72.7c0.2-1.4,0.3-2.7,0.3-3.9c0-3.6-1.3-5.5-3.9-5.7c-2.3-0.1-4.2,0.9-5.8,2.9l-2.6,14.6c0.7,1.9,2.2,2.8,4.6,2.9
			c3.6,0.1,5.9-2.3,6.9-7.1l0.5-3L381.5,72.7z"/>
		<path class="st0" d="M400.5,91.7h-11.2l9-52.1h11.2L400.5,91.7z"/>
		<path class="st0" d="M422.3,91.7c-0.3-0.9-0.5-2-0.5-3.3c-2.5,2.8-5.5,4.1-9,4c-3.2,0-5.8-1.1-7.9-3.2c-2.1-2.1-3.1-4.6-3-7.6
			c0.1-4,1.8-7,5-9.2c3.2-2.1,7.6-3.2,13.2-3.2l3.7,0.1l0.4-2.1l0.1-1.8c-0.1-2.1-1.1-3.1-3.1-3.2c-2.4,0-3.9,1.3-4.5,4l-11.2,0
			c0.1-2.5,0.9-4.6,2.4-6.4c1.5-1.8,3.5-3.2,6.1-4.2c2.6-1,5.3-1.4,8.2-1.4c2.8,0.1,5.2,0.7,7.3,1.7s3.7,2.6,4.7,4.6
			c1,2,1.4,4.2,1.2,6.8l-2.7,17.3l-0.2,2.1c-0.1,1.7,0.1,3.1,0.6,4.3l0,0.6H422.3z M416,84.3c2.3,0.1,4.3-0.9,6-3l1.1-5.9l-2.9,0
			c-1.8,0-3.3,0.6-4.6,1.6c-1.3,1-2,2.4-2.3,4.1c-0.1,0.9,0.1,1.7,0.5,2.3C414.3,83.9,415,84.2,416,84.3z"/>
		<path class="st0" d="M433.7,73.2c0.7-5.8,2.5-10.4,5.3-13.9c2.8-3.5,6.5-5.2,11.1-5.1c3.1,0.1,5.7,1.4,7.8,3.9l3.6-18.7h11.2
			l-9,52.1h-9.9l0.5-4c-2.7,3.2-5.8,4.8-9.1,4.7c-3.5,0-6.3-1.4-8.3-3.9c-2-2.6-3.1-6-3.2-10.3c0-1.4,0-2.8,0.1-4.2L433.7,73.2z
			 M444.8,74c-0.2,1.4-0.3,2.7-0.2,3.8c0,3.8,1.3,5.7,3.8,5.7c2.2,0.1,4.2-1,5.9-3.2l2.5-14.1c-0.7-2.1-2.2-3.2-4.5-3.2
			c-2.1,0-3.8,0.9-5,2.7C446,67.6,445.1,70.4,444.8,74z"/>
		<path class="st0" d="M482.4,92.3c-3.3,0-6.2-0.8-8.8-2.3c-2.6-1.5-4.5-3.7-5.8-6.4c-1.3-2.7-1.8-5.7-1.6-9l0.1-1
			c0.6-6,2.7-10.8,6.3-14.3c3.6-3.5,8-5.2,13.2-5.1c3.1,0,5.8,0.8,8.1,2.4c2.2,1.6,3.9,3.7,4.9,6.4c1,2.7,1.4,5.8,1,9.2l-0.6,4.7
			h-21.8c0,1.9,0.6,3.5,1.6,4.7c1,1.2,2.6,1.8,4.5,1.9c3.2,0.1,6.1-1.2,8.7-3.7l4.7,6.2c-1.4,2-3.3,3.5-5.8,4.6
			c-2.5,1.1-5.2,1.7-8.1,1.7H482.4z M485.1,63.1c-1.6,0-3,0.4-4.1,1.5c-1.2,1-2.2,2.8-3,5.2h11.2l0.2-1c0.1-0.8,0.2-1.5,0.1-2.2
			C489,64.3,487.6,63.2,485.1,63.1z"/>
	</g>
	<path class="st1" d="M213.7,101.9l-1.5-3.8c0,0,0.7-3.3-0.7-7.3c-1.3-4-7.3-22.5-7.3-22.5s5.3-12.6-1.3-22.5
		C197.3,37.3,189.3,14,187,7.2c-0.3-0.8-0.5-1.6-0.7-2.4c-0.2-1.2-1.6-4.1-9.9-4.1h-0.2c-2.4,0-4.4,1.8-4.5,4.2
		c-0.1,2.4,1.9,4.4,4.3,4.4h3l9.3,23.8l0.7,2c0,0-8.6,4-13.2,9.9l1.3,2c0,0-2,1.3-2,2.6l-4.8-2.6c0,0-6.5,4.6-1.9,17.2
		c4.6,10.6,14.6,13.2,14.6,13.2s4,3.3,6,9.9c0.8,2.6,2.5,8.4,4.3,14.4H0v2.4h500v-2.4H213.7z M176.5,6.3c-0.7,0-1.3-0.6-1.3-1.3
		s0.6-1.3,1.3-1.3c0.7,0,1.3,0.6,1.3,1.3S177.2,6.3,176.5,6.3z M187.7,66.9c-5.9,0-10.6-4.7-10.6-10.6s4.7-10.6,10.6-10.6
		s10.6,4.7,10.6,10.6S193.6,66.9,187.7,66.9z"/>
</g>
</svg>
