<?xml version="1.0" encoding="utf-8"?>
<!-- Generator: Adobe Illustrator 27.2.0, SVG Export Plug-In . SVG Version: 6.00 Build 0)  -->
<svg version="1.1" id="Layer_1" xmlns="http://www.w3.org/2000/svg" xmlns:xlink="http://www.w3.org/1999/xlink" x="0px" y="0px"
	 viewBox="0 0 400 45" style="enable-background:new 0 0 400 45;" xml:space="preserve">
<style type="text/css">
	.st0{clip-path:url(#SVGID_00000003812642637442621910000004365653156837840041_);}
	.st1{fill:#FFFFFF;}
</style>
<g>
	<g>
		<defs>
			<rect id="SVGID_1_" width="400" height="45"/>
		</defs>
		<clipPath id="SVGID_00000070802032882879664730000017595376589799805866_">
			<use xlink:href="#SVGID_1_"  style="overflow:visible;"/>
		</clipPath>
		<g style="clip-path:url(#SVGID_00000070802032882879664730000017595376589799805866_);">
			<g>
				<path class="st1" d="M150.4,48.8c-6.3,0-11.4-5.1-11.4-11.4S144.1,26,150.4,26s11.4,5.1,11.4,11.4S156.7,48.8,150.4,48.8z
					 M150.4,28c-5.2,0-9.4,4.2-9.4,9.4s4.2,9.4,9.4,9.4s9.4-4.2,9.4-9.4S155.6,28,150.4,28z"/>
			</g>
			<g>
				<path class="st1" d="M16.4,18.3c-5.4,0-9.8-4.4-9.8-9.8s4.4-9.8,9.8-9.8s9.8,4.4,9.8,9.8S21.8,18.3,16.4,18.3z M16.4,0.7
					c-4.3,0-7.8,3.5-7.8,7.8s3.5,7.8,7.8,7.8s7.8-3.5,7.8-7.8S20.7,0.7,16.4,0.7z"/>
			</g>
			<g>
				<path class="st1" d="M150.4,62.8c-14,0-25.4-11.4-25.4-25.4S136.4,12,150.4,12s25.4,11.4,25.4,25.4
					C175.9,51.4,164.5,62.8,150.4,62.8z M150.4,14C137.5,14,127,24.5,127,37.4s10.5,23.4,23.4,23.4s23.4-10.5,23.4-23.4
					S163.4,14,150.4,14z"/>
			</g>
			<g>
				<path class="st1" d="M-5.9,121.7h-2C-7.9,50.3,50.2-7.8,121.6-7.8v2C51.3-5.8-5.9,51.4-5.9,121.7z"/>
			</g>
			<g>
				<path class="st1" d="M244.5,52.8h-2c0-22.5,18.3-40.8,40.8-40.8v2C261.9,14,244.5,31.4,244.5,52.8z"/>
			</g>
			<g>
				<path class="st1" d="M187.4,19.3v-2c23.1,0,41.9-18.8,41.9-41.9h2C231.3-0.4,211.6,19.3,187.4,19.3z"/>
			</g>
			<g>
				<path class="st1" d="M42.8,80.6h-2c0-35,28.5-63.4,63.4-63.4c9.2,0,18.1,1.9,26.4,5.7l-0.8,1.8c-8-3.7-16.6-5.5-25.5-5.5
					C70.4,19.1,42.8,46.7,42.8,80.6z"/>
			</g>
			<g>
				<path class="st1" d="M118.5,20l-1.8-0.8C122.5,5.4,136-3.6,151-3.6c14.3,0,27.5,8.3,33.7,21.1l-1.8,0.9
					c-5.9-12.2-18.4-20-31.9-20C136.8-1.6,124.1,6.9,118.5,20z"/>
			</g>
			<g>
				<path class="st1" d="M184.9,38.2v-2c20.6,0,37.3-16.7,37.3-37.3s-16.7-37.3-37.3-37.3v-2c21.7,0,39.3,17.6,39.3,39.3
					S206.6,38.2,184.9,38.2z"/>
			</g>
			<g>
				<path class="st1" d="M158.9,79.9v-2c46.7,0,84.7-38,84.7-84.7h2C245.6,41,206.7,79.9,158.9,79.9z"/>
			</g>
			<g>
				<path class="st1" d="M311.4,52.8h-2c0-14.4-11.7-26.1-26.1-26.1s-26.1,11.7-26.1,26.1h-2c0-15.5,12.6-28.1,28.1-28.1
					C298.8,24.8,311.4,37.4,311.4,52.8z"/>
			</g>
			<g>
				<path class="st1" d="M25.9,6.4l-0.8-1.8c14.6-6.8,23.3-20.8,23.3-37.5h2C50.3-15.4,41.2-0.7,25.9,6.4z"/>
			</g>
			<g>
				<circle class="st1" cx="150.4" cy="37.4" r="4.4"/>
			</g>
			<g>
				<circle class="st1" cx="188" cy="37.4" r="4.4"/>
			</g>
			<g>
				<circle class="st1" cx="183.6" cy="17.4" r="4.4"/>
			</g>
			<g>
				<circle class="st1" cx="283.3" cy="13" r="4.4"/>
			</g>
		</g>
	</g>
</g>
</svg>
