<?xml version="1.0" encoding="UTF-8"?><svg id="Layer_2" xmlns="http://www.w3.org/2000/svg" viewBox="0 0 50 50"><defs><style>.cls-1{fill:#fff;}</style></defs><path class="cls-1" d="M6.66,29.99c-1.1-1.07-1.66-2.56-1.66-4.49v-7.08h4.34v6.96c0,.94,.17,1.63,.51,2.06,.34,.43,.83,.64,1.46,.64s1.13-.21,1.46-.64c.34-.43,.51-1.12,.51-2.06v-6.96h4.27v7.08c0,1.93-.55,3.42-1.66,4.49-1.1,1.07-2.64,1.6-4.62,1.6s-3.51-.53-4.62-1.6Z"/><path class="cls-1" d="M23.88,21.69v2.21h5.37v3.28h-5.37v4.12h-4.34v-12.88h10.47v3.27h-6.13Z"/><path class="cls-1" d="M31.38,18.41h6.35c1.43,0,2.7,.26,3.8,.78,1.1,.52,1.95,1.27,2.56,2.24,.61,.97,.91,2.11,.91,3.42s-.3,2.45-.91,3.42c-.61,.97-1.46,1.71-2.56,2.24-1.1,.52-2.36,.78-3.8,.78h-6.35v-12.88Zm6.16,9.49c.93,0,1.68-.27,2.24-.8s.84-1.28,.84-2.25-.28-1.72-.84-2.25-1.3-.8-2.24-.8h-1.82v6.11h1.82Z"/></svg>