<?xml version="1.0" standalone="no"?>
<!DOCTYPE svg PUBLIC "-//W3C//DTD SVG 20010904//EN"
 "http://www.w3.org/TR/2001/REC-SVG-20010904/DTD/svg10.dtd">
<svg version="1.0" xmlns="http://www.w3.org/2000/svg"
 width="500.000000pt" height="500.000000pt" viewBox="0 0 500.000000 500.000000"
 preserveAspectRatio="xMidYMid meet">
<metadata>
Created by potrace 1.14, written by Peter Selinger 2001-2017
</metadata>
<g transform="translate(0.000000,500.000000) scale(0.100000,-0.100000)"
fill="#000000" stroke="none">
<path d="M1895 4994 c-83 -20 -157 -127 -149 -216 5 -69 43 -131 100 -164 40
-24 59 -27 147 -31 55 -2 102 -4 103 -6 9 -9 474 -1218 474 -1233 0 -2 -42
-26 -92 -55 -193 -108 -310 -192 -436 -313 -106 -101 -108 -105 -82 -155 11
-22 25 -43 31 -46 7 -5 -2 -18 -24 -36 -19 -15 -42 -44 -51 -64 l-17 -35 -62
35 c-34 20 -86 48 -116 63 l-53 27 -35 -40 c-225 -255 -141 -808 170 -1125
132 -134 234 -205 398 -276 113 -49 137 -70 224 -200 86 -127 117 -207 235
-601 61 -202 113 -376 116 -385 5 -17 -66 -18 -1385 -18 l-1391 0 0 -60 0 -60
2500 0 2500 0 0 60 0 60 -617 2 -618 3 -34 85 c-22 56 -33 99 -31 125 8 159
-2 218 -88 480 -33 99 -96 295 -141 435 -46 140 -100 309 -121 374 -26 79 -36
124 -31 135 17 30 60 206 74 300 14 89 16 327 4 377 -3 12 -8 38 -11 59 -15
92 -118 332 -147 343 -5 2 -9 7 -9 12 0 4 -17 37 -38 71 -22 35 -66 120 -100
189 -60 125 -242 544 -242 559 0 4 -6 21 -14 37 -52 107 -346 930 -382 1069
-20 76 -40 109 -84 140 -36 25 -124 59 -182 70 -43 8 -267 15 -293 9z m118
-162 c23 -20 22 -57 -3 -82 -24 -24 -48 -25 -77 -5 -39 27 -34 88 9 104 26 9
45 5 71 -17z m597 -2017 c183 -30 364 -210 400 -396 31 -160 -13 -322 -120
-441 -265 -295 -736 -193 -866 187 -37 111 -21 276 38 387 106 199 320 301
548 263z"/>
</g>
</svg>
