<?xml version="1.0" encoding="UTF-8"?><svg id="Layer_1" xmlns="http://www.w3.org/2000/svg" viewBox="0 0 25 25"><path d="m14.05,22.31c.74,0,1.35.6,1.35,1.35s-.6,1.35-1.35,1.35-1.35-.6-1.35-1.35.6-1.35,1.35-1.35ZM12.7,1.35c0,.74.6,1.35,1.35,1.35s1.35-.6,1.35-1.35S14.79,0,14.05,0s-1.35.6-1.35,1.35Zm.92,4.37l-3.76-3.76-1.9,1.9,4.32,4.32h0c-.55,1.36-.84,2.82-.84,4.33s.29,2.97.84,4.33h0s-4.32,4.32-4.32,4.32l1.9,1.9,3.76-3.76h0c.95,1.32,2.18,2.46,3.64,3.29l1.35-2.33c-2.76-1.59-4.48-4.56-4.48-7.74s1.72-6.15,4.48-7.74l-1.35-2.33c-1.45.84-2.69,1.97-3.64,3.29h0Zm-3.82,10.76c-.45-1.24-.71-2.58-.71-3.98s.26-2.73.71-3.98l-2.06-2.06c-.86,1.84-1.35,3.88-1.35,6.04s.49,4.2,1.35,6.04l2.06-2.06Z"/></svg>