<?xml version="1.0" encoding="UTF-8"?><svg id="Layer_2" xmlns="http://www.w3.org/2000/svg" viewBox="0 0 25 25"><path d="M12.5,25C5.61,25,0,19.39,0,12.5S5.61,0,12.5,0s12.5,5.61,12.5,12.5-5.61,12.5-12.5,12.5ZM12.5,1.19C6.26,1.19,1.19,6.26,1.19,12.5s5.07,11.31,11.31,11.31,11.31-5.07,11.31-11.31S18.74,1.19,12.5,1.19Zm.6,12.17c2.35-.29,4.17-2.3,4.17-4.72,0-2.63-2.14-4.76-4.76-4.76s-4.76,2.14-4.76,4.76h1.19c0-1.97,1.6-3.57,3.57-3.57s3.57,1.6,3.57,3.57-1.6,3.57-3.57,3.57h-.6v4.16h1.19v-3.01Zm0,5.99h-1.19v1.19h1.19v-1.19Z"/></svg>