<?xml version="1.0" encoding="UTF-8"?><svg id="Layer_2" xmlns="http://www.w3.org/2000/svg" viewBox="0 0 25 25"><path d="m12.24,18.99c-.12-.11-.21-.2-.3-.28-.08-.08-.16-.16-.2-.28,0-.02,0-.04,0-.05.01-.01.03-.02.05-.02.03,0,.06,0,.08.01.15.06.29.14.43.23.13.09.27.18.42.27-.04-.08-.1-.12-.15-.17-.05-.06-.11-.11-.16-.16-.18-.17-.36-.34-.54-.52-.12-.11-.24-.22-.37-.31-.05-.03-.09-.07-.14-.1-.03-.02-.05-.06-.05-.1,0-.04,0-.08,0-.11-.02-.14.05-.15.14-.15.08,0,.15.03.22.07.23.12.46.23.69.35.26.13.51.27.76.41.17.09.33.2.49.29.3.16.6.34.89.52.27.17.54.33.83.47.45.22.93.35,1.43.39.32.02.63,0,.95-.03.33-.05.66-.11.98-.2.17-.04.34-.08.5-.12.15-.03.29-.09.43-.15.07-.03.13-.08.16-.15.11-.26.22-.53.33-.79.05-.11.05-.22.06-.34,0-.14,0-.29,0-.43,0-.1.01-.19.01-.29,0-.12,0-.25,0-.37,0-.11-.01-.23-.02-.34,0-.18-.01-.36-.02-.55,0-.12-.01-.23-.07-.33-.04-.07-.04-.15-.04-.22,0-.36-.05-.71-.11-1.06-.04-.23-.05-.46-.07-.69-.01-.14-.02-.29-.07-.42,0-.01-.03-.03-.05-.02-.04,0-.07.02-.1.04-.14.1-.27.21-.39.34-.2.22-.4.44-.58.68-.14.18-.3.35-.46.51-.28.29-.56.57-.83.88-.02.02-.04.05-.06.06-.03.02-.07.03-.11.03-.06,0-.11-.01-.17-.03-.15-.06-.3-.12-.45-.19-.14-.06-.28-.12-.43-.16-.05-.01-.09-.01-.14-.02-.02,0-.06.03-.06.05,0,.1,0,.19,0,.29,0,.23,0,.46-.01.69,0,.08-.03.15-.06.22-.08.16-.18.32-.29.46-.03.04-.06.08-.1.11-.17.14-.35.27-.54.37-.08.04-.16.07-.24.1-.1.04-.2.05-.31.02-.2-.05-.41-.09-.62-.14-.34-.09-.68-.18-1.03-.28-.33-.09-.66-.2-.98-.34-.47-.2-.89-.48-1.24-.86-.07-.08-.14-.16-.18-.26-.03-.07-.05-.14-.02-.22.02-.04.03-.09.04-.14.05-.13.04-.16-.11-.2-.12-.04-.24-.07-.36-.11-.09-.03-.18-.07-.26-.12-.24-.16-.46-.35-.64-.58-.1-.12-.17-.26-.22-.4-.03-.08-.05-.16-.06-.25,0-.07.01-.13.05-.19.16-.24.34-.47.56-.66.17-.15.33-.32.45-.52.02-.03.03-.07.04-.11,0-.02,0-.04-.03-.04-.03,0-.06-.01-.08,0-.31.03-.59.15-.84.34-.08.06-.15.12-.22.19-.09.09-.19.16-.31.2-.04.01-.07.03-.1.05-.04.02-.06.05-.07.09-.02.12-.05.24-.06.37-.02.21-.06.42-.1.62-.01.07-.02.13-.03.2-.02.1-.03.21-.06.31-.09.31-.18.63-.25.94,0,.02,0,.04-.02.06-.15.32-.21.67-.36,1-.23.5-.45,1.01-.76,1.48-.16.24-.32.48-.51.69-.17.19-.35.35-.57.48-.12.08-.24.15-.35.25-.04.04-.1.06-.14.09-.23.15-.49.16-.75.14-.09,0-.17-.03-.25-.07-.04-.02-.08-.05-.12-.07-.09-.05-.18-.07-.28-.06-.03,0-.06,0-.09,0-.36.06-.73.07-1.08.15-.08.02-.17.03-.26.04-.09,0-.17,0-.26,0-.09,0-.16-.06-.16-.1,0-.07.05-.11.09-.14.13-.09.26-.17.38-.25,0,0,0-.03,0-.05,0,0-.01-.01-.02-.01-.03,0-.06,0-.09,0-.07,0-.13.01-.2.02-.33.04-.67.06-1,.03-.08,0-.15,0-.23,0-.04,0-.08,0-.11,0-.08-.01-.14-.05-.2-.11-.06-.06-.06-.13-.04-.21,0-.03-.02-.05-.04-.06-.06,0-.12,0-.17-.02-.12-.04-.18-.13-.16-.27,0-.04.03-.07.07-.09.08-.03.16-.05.25-.07.12-.03.25-.04.37-.07.09-.02.19-.04.28-.07.16-.05.31-.1.48-.1.23-.07.46-.11.69-.2.19-.07.38-.14.57-.21.21-.08.41-.17.59-.29.16-.1.32-.2.49-.3.31-.19.59-.42.85-.68.21-.21.42-.42.62-.64.16-.18.3-.37.42-.58.14-.23.28-.46.38-.71.02-.05.03-.11.05-.16,0-.04-.03-.08-.06-.08-.05,0-.1,0-.14,0-.04,0-.08.02-.1.05-.14.2-.33.35-.51.5-.18.15-.4.22-.63.26-.29.04-.57.01-.86,0-.05,0-.09-.02-.14-.03-.21-.07-.41-.16-.61-.26-.21-.12-.39-.28-.54-.47-.29-.37-.27-.95.07-1.32.02-.02.04-.04.06-.06.06-.05.13-.08.21-.08.11,0,.23,0,.34,0,.24.01.47-.03.7-.13.15-.06.1-.06.3-.01.1.03.21.05.31.04.09,0,.18-.05.27-.09.4-.14.78-.32,1.15-.53.07-.04.13-.08.19-.13,0,0,0-.03,0-.05,0-.02-.02-.03-.04-.03-.3,0-.59,0-.89,0-.14,0-.29-.01-.43-.02-.15-.01-.28-.07-.4-.16-.1-.07-.15-.17-.17-.29,0-.08.03-.15.07-.21.08-.1.18-.2.3-.27.15-.09.3-.17.46-.22.14-.04.27-.1.41-.14.08-.03.16-.05.22-.12.05-.05.13-.08.19-.12.11-.07.14-.17.11-.3-.01-.05-.04-.09-.09-.11-.04-.02-.09-.03-.14-.04-.22-.06-.44-.12-.66-.19-.23-.07-.45-.15-.67-.25-.23-.1-.45-.22-.63-.39-.06-.05-.11-.11-.17-.15-.1-.07-.14-.17-.14-.3,0-.15.04-.19.19-.17.1,0,.21.02.31.04.19.03.38.02.57-.01.22-.04.43-.08.64-.15.05-.01.09-.04.13-.06,0,0,.01-.04,0-.05-.02-.03-.05-.06-.08-.08-.12-.08-.23-.17-.36-.24-.27-.17-.5-.38-.7-.63-.34-.41-.62-.85-.83-1.33-.1-.24-.21-.47-.31-.71-.14-.32-.31-.61-.53-.88-.02-.03-.04-.06-.07-.09-.03-.04-.01-.1.02-.13.05-.05.11-.08.17-.1.02,0,.04,0,.06-.01.61-.08,1.16.05,1.64.45.15.12.29.25.43.39.04.04.08.09.11.13.17.25.38.46.59.66.16.15.34.17.53.11.07-.02.14-.06.21-.1.06-.03.11-.07.17-.11.45-.33.87-.68,1.25-1.09.21-.23.44-.46.69-.65.12-.09.23-.2.35-.3.15-.13.32-.22.51-.24.15-.02.31-.02.46,0,.28.06.55.17.8.3.16.09.29.22.41.36.04.05.05.1.05.16-.03.22-.09.43-.21.62-.06.09-.12.17-.17.26-.03.06-.06.12-.09.18-.01.03.01.09.04.09.43.06.86.04,1.28-.07.24-.06.47-.16.69-.28.52-.28,1.03-.58,1.51-.95.04-.03.08-.06.12-.08.05-.02.11-.05.16-.05.09,0,.17,0,.26,0,.07,0,.13.02.19.06.09.05.18.11.27.16.18.1.34.21.48.37.02.03.05.05.08.08.1.08.21.12.34.12.7-.03,1.36-.2,2.01-.46.29-.12.58-.25.86-.39.08-.04.11-.1.11-.18,0-.16,0-.33,0-.49,0-.1.02-.19.04-.28.02-.08.07-.13.15-.16.05-.02.11-.04.16-.06.17-.04.34-.08.5-.12.04,0,.08,0,.11,0,.56,0,1.11,0,1.67,0,.06,0,.11.02.14.08.09.15.17.3.22.46.03.1.08.2.12.29.07.16.06.32,0,.48-.02.06-.05.13-.08.18-.19.31-.28.65-.35,1-.07.37-.1.74-.1,1.11,0,.2,0,.4,0,.6,0,.09,0,.17,0,.26,0,.26.03.52.09.77,0,.03.02.06.03.08,0,.01.03.02.05.02.04,0,.07-.02.11-.04.17-.09.33-.19.48-.32.42-.35.83-.71,1.23-1.08.13-.12.24-.27.36-.41.09-.11.19-.22.28-.33.05-.06.11-.1.19-.12.15-.04.29-.09.44-.14.1-.04.21-.03.31-.02.02,0,.03.02.04.04,0,.02.01.04.01.05,0,.13,0,.27,0,.4,0,.06-.02.11-.06.15-.07.07-.14.16-.2.25-.03.06-.08.1-.13.15-.07.08-.14.15-.21.24-.08.1-.18.19-.28.29-.12.11-.23.23-.33.36-.09.12-.2.23-.31.34-.09.09-.17.18-.24.28-.09.11-.19.22-.28.33-.04.04-.08.08-.11.13-.11.18-.24.35-.33.54-.13.25-.28.5-.43.75-.08.14-.15.29-.21.44-.05.14-.06.28-.03.42.02.11.05.22.08.33.09.33.18.66.27,1,.13.49.22.99.32,1.49.03.14.05.28.08.42.08.37.12.74.15,1.11.02.27.05.53.1.8.05.28.06.57.06.86,0,.39,0,.79,0,1.18,0,.27-.03.54-.06.8-.02.19-.05.38-.08.57-.01.08-.02.15-.05.22-.04.1-.06.2-.08.3-.15.6-.39,1.16-.74,1.67-.11.17-.24.32-.38.47-.14.15-.31.26-.49.34-.21.09-.42.19-.61.31-.1.07-.21.09-.33.09-.14,0-.29,0-.43,0-.59,0-1.19,0-1.78,0-.39,0-.76-.04-1.14-.13-.72-.17-1.41-.44-2.05-.81-.2-.11-.4-.22-.6-.33-.13-.07-.24-.15-.35-.24-.12-.11-.26-.2-.39-.3-.11-.08-.22-.15-.33-.22-.16-.11-.31-.23-.44-.36-.22-.23-.46-.43-.71-.63-.32-.26-.65-.51-.97-.77-.09-.07-.17-.16-.25-.23-.02-.02-.04-.05-.05-.07-.03-.04-.01-.1.03-.12.15-.04.3-.03.46-.02.03,0,.05.02.08.04.15.1.3.21.45.31.1.07.2.15.3.22.09.07.18.14.33.17Zm-3.47-9.61c.16,0,.33,0,.48.06.17.08.35.16.51.25.1.06.18.15.2.27.02.1-.05.18-.11.26-.02.02-.04.05-.06.07-.15.15-.33.27-.54.31-.11.02-.23.04-.34.06-.04,0-.08,0-.11.02-.09.05-.18.06-.28.07-.4.06-.34.05-.34.41,0,.03,0,.06,0,.09,0,.03.04.07.08.08.19.03.36-.02.52-.13.18-.12.37-.2.55-.3.05-.03.11-.04.16-.05.05,0,.1-.02.14,0,.21.06.42.12.58.29.1.11.23.17.36.23.07.03.11.03.15-.03.08-.1.16-.2.22-.3.23-.36.46-.73.69-1.09.03-.04.05-.08.07-.13.15-.36.15-.71-.11-1.02-.12-.15-.25-.29-.38-.43-.1-.11-.21-.22-.31-.34-.04-.05-.08-.11-.12-.16-.02-.04,0-.09.03-.13.03-.04.07-.06.12-.06.07,0,.13,0,.2.01.07,0,.13.03.2.03.41.02.81.13,1.2.26.14.05.3.07.43.15.02.01.06.01.08.01.07,0,.13.03.18.07.09.06.19.09.3.1.08,0,.13-.03.15-.1,0-.02,0-.04.01-.06.06-.27.07-.55.04-.83-.02-.15-.03-.3-.03-.46,0-.2-.04-.4-.07-.6,0-.03-.05-.07-.08-.07-.22-.02-.42.04-.57.2-.15.16-.32.31-.42.5,0,.02-.02.03-.03.05-.05.06-.11.11-.18.14-.22.09-.45.12-.68.12-.35,0-.68-.08-.99-.25-.14-.08-.29-.15-.43-.23-.15-.07-.29-.14-.44-.21-.1-.05-.19-.03-.27.03-.18.14-.38.26-.53.44-.04.04-.08.09-.13.11-.21.09-.35.26-.49.43-.02.03-.03.07-.05.1,0,.02,0,.04.03.03.1-.02.21-.04.31-.07.16-.05.33-.11.49-.17.23-.08.47-.09.71-.04.15.03.26.11.36.22.05.06.09.13.09.21,0,.13,0,.27,0,.4,0,.11-.03.14-.15.18-.06.02-.13.03-.2.05-.24.05-.49.09-.72.18-.05.02-.11.03-.17.02-.04,0-.08,0-.11,0-.26.05-.52.12-.77.23-.23.11-.42.27-.56.48-.04.06-.07.13-.09.21,0,.06.03.09.09.07.05-.02.11-.03.16-.05.31-.12.63-.16.96-.17Zm10.67-3.01c-.03-.25-.02-.51-.01-.78,0-.09,0-.19-.02-.29,0-.06-.04-.11-.06-.16,0-.02-.05-.03-.07-.02-.06.03-.12.07-.17.11-.2.15-.36.34-.51.54-.12.15-.23.31-.34.46-.06.08-.12.15-.18.22-.06.06-.16.08-.24.03-.06-.03-.11-.07-.16-.12-.08-.06-.16-.1-.26-.09-.11,0-.21,0-.32,0-.11,0-.21-.02-.31-.06-.09-.04-.17-.08-.26-.12-.1-.05-.2-.11-.31-.16-.1-.05-.21-.09-.32-.11-.05,0-.1.02-.11.07-.06.2-.1.41-.12.62-.01.17-.01.34-.1.5-.03.06-.03.13-.05.19-.05.21-.1.43-.16.64-.07.29-.15.57-.22.86-.03.15-.03.3,0,.45.05.29.05.59-.06.88-.01.04-.03.07-.03.11,0,.02.02.06.04.07.03.02.07.02.11.03.03,0,.05.02.08.03.01,0,.03.04.02.05-.03.06-.06.12-.09.18-.1.16-.16.32-.17.51,0,.11-.02.23-.04.34-.02.19-.04.38-.03.57,0,.12.03.25.07.36,0,.02.02.03.03.05.03.06.13.07.16,0,.19-.31.38-.62.56-.93.25-.42.47-.85.65-1.31.1-.25.19-.5.23-.77.06-.36.07-.72-.01-1.08-.03-.13-.07-.26-.12-.38-.02-.05-.05-.11-.07-.16-.04-.11,0-.17.1-.18.04,0,.08,0,.11,0,.16,0,.32.03.48.06.27.06.54.12.79.24.16.08.32.16.5.22.04.01.07.03.1.05.14.08.28.17.42.25.22.13.25.12.29-.12.1-.59.13-1.18.15-1.77,0-.03,0-.06,0-.11Zm-.15,3.4s0-.06-.02-.1c0-.04-.05-.07-.09-.06-.2.05-.41.11-.59.21-.03.01-.05.03-.07.05-.17.11-.33.23-.5.34-.11.08-.22.16-.29.27-.05.08-.13.14-.2.2-.22.18-.42.39-.59.62-.22.29-.44.58-.65.87-.07.1-.13.21-.19.32-.04.07-.08.13-.13.19-.18.18-.28.41-.38.64,0,0,0,.02,0,.03,0,.02.02.05.05.06.12.02.23-.04.32-.1.18-.12.37-.23.52-.4.05-.05.1-.09.15-.13.23-.21.47-.42.7-.64.09-.08.18-.18.26-.26.09-.09.19-.19.28-.28.09-.09.18-.18.26-.26.09-.1.18-.19.28-.29.09-.09.17-.18.26-.27.05-.13.19-.18.28-.28.01-.01.03-.03.04-.04.07-.1.15-.2.21-.31.06-.1.1-.21.09-.37Zm-5.82.57s0,0,0,0c0-.1-.02-.21-.03-.31,0-.02-.04-.04-.06-.06,0,0-.02,0-.03,0-.22.03-.43.08-.6.24-.03.03-.06.05-.1.06-.1.04-.18.11-.26.18-.3.27-.56.57-.78.91-.13.2-.25.41-.4.6-.02.03-.04.07-.06.1-.14.22-.27.44-.41.66-.01.02-.03.05-.04.07-.01.02,0,.04.02.05,0,0,.02,0,.03,0,.13-.06.26-.11.39-.18.25-.12.49-.26.7-.45.05-.04.11-.08.16-.12.3-.19.57-.42.84-.65.02-.02.04-.04.06-.06.09-.1.19-.19.29-.27.16-.12.26-.28.26-.49,0-.1,0-.19,0-.29Zm-.32,3.39c0-.11,0-.23-.03-.34-.02-.11-.05-.22-.08-.33,0-.03-.07-.05-.1-.03-.03.02-.06.04-.09.07-.09.08-.17.16-.26.23-.25.18-.47.39-.68.61-.08.08-.16.16-.25.24-.14.14-.28.28-.39.46-.03.05-.03.09.03.12.17.09.34.18.51.25.11.05.23.08.35.12.15.04.3.04.46.01.08-.01.15-.04.19-.11.11-.17.2-.35.24-.55.05-.24.08-.49.09-.74Zm-4.04-9.48s-.01-.1-.02-.17c0-.06-.07-.09-.13-.07-.06.02-.11.04-.15.08-.17.16-.31.34-.42.54-.21.42-.42.84-.59,1.27-.04.11-.07.22-.1.33-.01.04,0,.09,0,.14,0,.04.04.07.08.05.08-.02.14-.07.19-.13.06-.07.12-.15.18-.23.06-.08.12-.15.21-.19.07-.03.12-.09.17-.16.11-.16.22-.31.33-.47.19-.3.27-.63.28-1.01Z"/></svg>