<?xml version="1.0" encoding="UTF-8"?><svg id="Layer_2" xmlns="http://www.w3.org/2000/svg" viewBox="0 0 25 25"><path d="m18.51,13.87c.18.07.35.17.5.29.07.05.13.11.19.17.12.11.18.25.19.42.01.24.01.48,0,.72,0,.08-.03.14-.08.2-.02.03-.05.05-.08.08-.09.11-.2.15-.34.14-.27-.02-.53-.02-.8,0-.39.02-.77.09-1.15.19-.06.02-.12.04-.18.07-.05.02-.06.07-.03.11.07.09.13.18.21.26.28.3.51.63.73.98.27.42.52.85.79,1.27.05.09.11.17.17.25.02.03.06.04.1.03.11-.02.21-.07.3-.13.21-.14.43-.25.65-.36.54-.28,1.04-.63,1.52-1.01.31-.25.55-.58.72-.94.17-.34.28-.7.34-1.08.03-.15.03-.31.03-.47,0-.31,0-.63-.01-.94-.02-.52-.1-1.03-.21-1.54-.08-.37-.15-.74-.23-1.11-.06-.28-.12-.56-.18-.84-.03-.12-.04-.24-.04-.36,0-.23,0-.46-.03-.69-.02-.17-.02-.35-.02-.53,0-.06.02-.13.04-.19.08-.21.14-.42.17-.64.02-.1.05-.2.08-.29.02-.05.04-.1.08-.14.14-.14.23-.31.34-.47.11-.18.16-.37.17-.58.02-.17.03-.33.05-.5,0-.09.03-.18.06-.27.03-.07.1-.09.15-.04.06.06.11.13.14.21.07.19.14.38.16.59.01.17.03.33.04.5,0,.13.03.26.08.38.08.18.1.37.1.57,0,.09,0,.19,0,.28-.01.25.03.5.11.74.09.27.15.55.2.83.04.25.11.49.2.72.1.26.19.52.25.79,0,.04.03.09.05.13.01.03.03.05.04.07.06.28.19.54.28.81.09.27.19.54.28.81.04.1.06.21.08.32.05.28.11.56.17.84.06.28.1.56.09.85,0,.54,0,1.07,0,1.61,0,.14-.02.28-.05.41-.15.52-.36,1.01-.67,1.45-.23.33-.5.62-.83.85-.25.17-.51.34-.76.5-.19.12-.37.24-.56.37-.38.25-.7.57-.99.92-.09.11-.18.23-.28.35-.16.2-.33.4-.5.6-.15.17-.32.31-.5.43-.1.06-.19.1-.31.1-.16,0-.31,0-.47,0-.06,0-.11-.02-.14-.07-.05-.07-.1-.13-.15-.2-.22-.33-.41-.68-.59-1.03-.2-.4-.41-.81-.61-1.21-.08-.17-.18-.32-.28-.48-.07-.1-.13-.2-.2-.3-.17-.26-.34-.53-.47-.82-.16-.35-.38-.66-.64-.93-.09-.09-.19-.17-.3-.25-.05-.04-.11-.06-.17-.08-.12-.04-.22-.01-.3.09-.08.1-.15.21-.21.33-.3.58-.59,1.15-.89,1.72-.2.38-.42.74-.68,1.08-.15.2-.31.39-.5.56-.08.08-.17.15-.26.21-.13.09-.28.14-.44.12-.23-.02-.46-.02-.69,0-.25.02-.5,0-.75-.02-.2-.02-.38-.08-.54-.19-.3-.2-.57-.44-.81-.71-.09-.1-.13-.22-.16-.35-.07-.43-.02-.85.14-1.25.01-.03.02-.05.04-.07.03-.06.09-.08.14-.05.12.07.24.14.35.22.07.05.13.1.2.14.34.22.7.37,1.11.41.17.02.33.01.5,0,.15-.02.29-.05.43-.11.54-.24.93-.63,1.18-1.16.07-.16.11-.33.13-.51,0-.05-.05-.09-.09-.07-.03.01-.05.02-.08.03-.12.07-.23.16-.32.27-.04.05-.08.1-.12.15-.06.08-.13.16-.2.23-.17.18-.36.28-.61.27-.04,0-.07,0-.11,0-.14,0-.24-.05-.33-.17-.18-.24-.37-.46-.56-.69-.25-.32-.43-.67-.54-1.05-.05-.16-.03-.21.13-.28.22-.1.44-.19.65-.31.13-.07.25-.15.38-.23.03-.02.04-.07.02-.1-.03-.04-.07-.09-.1-.13-.09-.11-.14-.24-.15-.38-.02-.34-.1-.68-.15-1.01-.02-.16-.03-.31-.02-.47,0-.03.03-.07.05-.1.02-.02.04-.04.07-.05.2-.14.35-.33.47-.54.06-.1.11-.21.17-.32.03-.06.06-.11.07-.18.02-.08.05-.16.08-.24.01-.04.03-.09.03-.13.03-.26.06-.51.09-.77.03-.27,0-.54-.09-.79-.07-.17-.1-.35-.1-.54,0-.02,0-.06-.04-.06-.03,0-.05.01-.07.03-.11.11-.2.24-.29.37-.02.03-.03.07,0,.1.03.07.07.13.1.2.09.18.17.37.21.57.02.09.03.18.04.27.02.14,0,.28-.07.41-.04.07-.07.15-.11.22-.07.12-.14.24-.21.36-.15.24-.28.48-.41.72-.17.34-.35.67-.53,1-.2.37-.39.76-.57,1.14-.26.56-.52,1.13-.77,1.69-.18.41-.35.84-.53,1.25-.33.75-.66,1.5-1,2.26-.1.24-.21.47-.31.71-.05.11-.11.21-.16.32-.05.09-.12.14-.22.16-.24.03-.47.09-.71.09-.14,0-.28-.01-.41-.07-.24-.11-.48-.12-.73-.08-.24.03-.48.06-.71.11-.24.04-.48.05-.72.08-.28.03-.55,0-.83-.05-.08-.01-.16-.04-.23-.08-.39-.2-.75-.44-1.05-.76-.24-.26-.48-.51-.72-.77-.21-.23-.4-.46-.58-.71-.1-.13-.2-.26-.3-.4-.05-.07-.1-.13-.14-.2-.05-.07-.06-.15-.07-.24,0-.14.03-.25.12-.35.1-.11.21-.21.33-.29.06-.04.13-.06.21-.07.21-.02.42,0,.63.07.04.01.08.04.12.07.09.08.17.17.25.26.08.08.17.14.27.2.29.16.59.25.92.29.17.02.33.05.48.12.27.13.56.18.86.2.32.02.65.03.97,0,.19-.01.37-.04.55-.09.22-.06.45-.12.66-.2.16-.05.31-.12.46-.18.22-.09.36-.26.45-.47.5-1.22,1.09-2.41,1.61-3.62.25-.58.5-1.15.72-1.74.06-.16.11-.33.16-.5.02-.06.03-.13.04-.19.01-.07,0-.13-.07-.17-.08-.05-.15-.11-.23-.16-.21-.12-.35-.3-.44-.52-.08-.19-.16-.37-.17-.58-.02-.2-.05-.4-.08-.61,0-.06-.01-.11-.01-.17,0-.31-.02-.63,0-.94.02-.44.04-.45.39-.67.7-.43,1.43-.82,2.17-1.17.04-.02.09-.04.13-.06.36-.2.74-.37,1.12-.54.43-.19.85-.41,1.26-.63.15-.08.29-.15.44-.23.04-.02.05-.08.02-.12-.07-.1-.18-.17-.29-.2-.16-.05-.32-.09-.48-.12-.36-.08-.74-.07-1.11-.06-.31.01-.3.02-.45-.26-.17-.33-.17-.33-.17-.71,0-.35.07-.68.22-.99.27-.58.65-1.07,1.15-1.47.08-.07.17-.11.28-.1.02,0,.04,0,.06,0,.24-.02.46.02.67.13.12.06.26.1.39.15.31.11.61.25.91.4.22.11.42.24.6.4.16.13.29.29.39.46.12.19.19.4.18.63,0,.3,0,.61-.02.91,0,.05,0,.09,0,.14,0,.02.04.07.07.08.02,0,.04,0,.05.01.35.04.7.03,1.03-.12.28-.12.56-.17.86-.16.09,0,.18,0,.28,0,.11,0,.2.04.27.12.08.08.15.17.2.27.1.19.16.4.18.61.05.48-.02.94-.22,1.38,0,0,0,.02-.01.02-.02.04-.07.07-.11.06-.06-.01-.13-.02-.19-.04-.15-.04-.3-.08-.45-.13-.22-.07-.44-.09-.66-.05-.18.03-.36.06-.54.1-.19.04-.38.09-.57.14-.33.08-.65.2-.97.33-.19.07-.38.15-.57.23-.27.12-.54.24-.81.37-.48.24-.95.5-1.4.8-.21.14-.4.3-.56.49-.02.02-.03.05-.03.07,0,.01.01.04.02.04.04,0,.07,0,.11,0,.31-.03.32-.03.58.11.29.15.56.32.8.54.14.12.25.27.35.43.07.12.12.25.11.39,0,.09,0,.18,0,.28,0,.03.04.07.08.06.15-.04.3-.08.45-.13.14-.05.28-.1.42-.15.48-.18.97-.35,1.47-.49.21-.06.43-.11.64-.16.05-.01.11-.01.16-.02.07.03.15.03.22,0,.06,0,.11,0,.16.04.12.1.24.2.36.3.11.1.2.21.27.35.03.08.07.15.11.22.1.2.12.4.11.62-.01.17-.1.3-.23.39-.04.03-.08.04-.13.04-.25.04-.49.07-.74.12-.45.08-.88.19-1.31.34-.14.05-.28.1-.4.18-.04.03-.07.06-.11.09-.03.03-.05.09-.03.13.02.05.05.1.07.15.05.1.11.19.14.3.04.12.09.16.22.16.29,0,.57,0,.85-.05.18-.03.36-.08.53-.14.11-.04.22-.1.34-.1.11,0,.22,0,.34,0Zm-5.06,1.57c.11-.03.23-.07.34-.15.12-.08.24-.17.36-.26.13-.1.26-.21.36-.34.02-.02.03-.04.04-.07,0-.03,0-.05,0-.08,0-.03-.04-.07-.08-.07-.07,0-.13.01-.18.05-.07.05-.14.09-.2.15-.26.21-.49.45-.7.71,0,0,0,.03,0,.04,0,0,.02,0,.04.01Zm-7.65-3.35c.18,0,.37,0,.55,0,.34,0,.68,0,1.02.01.19,0,.37-.03.55-.07.07-.01.11-.05.15-.11.09-.16.15-.34.16-.52,0-.24.01-.48.01-.72,0-.2-.02-.41-.06-.61,0-.04-.02-.07-.05-.09-.02-.02-.04-.04-.06-.05-.64-.51-1.35-.89-2.14-1.14-.31-.1-.63-.16-.94-.22-.09-.02-.18-.03-.27-.03-.1,0-.18.03-.24.11-.09.12-.15.25-.21.39-.11.3-.26.59-.43.87-.06.1-.11.21-.17.32-.06.11-.08.22-.1.34-.02.19-.02.39,0,.58.04.33.18.62.38.88.03.04.07.06.12.06.06,0,.13,0,.19,0,.51,0,1.01,0,1.52,0h0Zm-2.43,5.93c.03.2.08.4.17.58.18.36.45.61.85.7.24.05.48.06.72.02.05,0,.08-.04.11-.08.03-.05.05-.1.07-.15.28-.63.59-1.26.94-1.85.21-.35.39-.71.5-1.11.05-.16.12-.31.21-.45.13-.21.27-.42.39-.64.15-.25.32-.5.52-.72.14-.15.24-.33.28-.53,0-.03.02-.05.02-.08.05-.21.06-.42.03-.63-.02-.15-.1-.25-.23-.33-.03-.02-.07-.04-.1-.05-.18-.06-.38-.1-.57-.12-.02,0-.05.02-.07.03-.02.02-.03.05-.04.07-.1.18-.19.36-.25.55-.07.21-.19.4-.35.56-.04.04-.07.09-.11.12-.09.08-.16.18-.23.28-.14.2-.3.38-.47.54-.18.17-.36.35-.54.52-.07.07-.14.14-.22.21-.32.28-.64.56-.96.83-.18.16-.36.32-.54.48-.08.07-.12.16-.15.26-.02.12-.04.24-.04.36.02.2.03.41.05.61Zm14.35-7.28c.07.03.15.03.22,0-.07-.03-.15-.03-.22,0Z"/></svg>