<?xml version="1.0" encoding="UTF-8"?><svg id="Layer_2" xmlns="http://www.w3.org/2000/svg" viewBox="0 0 25 25"><path d="m14.22,13.75c.27,0,.54,0,.81-.01.05,0,.1,0,.15-.01.14-.01.28-.03.43-.03.75,0,1.5-.02,2.24-.01.24,0,.49,0,.73.05.11.02.22.02.33.03.21.03.41.09.61.16.16.06.31.12.47.18.05.02.1.04.13.07.13.1.26.21.4.31.08.06.14.15.19.23.03.05.05.11.08.16.16.27.2.57.19.87,0,.15-.12.29-.27.33-.05.01-.1.03-.15.03-.36.05-.72.09-1.08.09-.32,0-.64-.03-.95-.09-.62-.13-1.23-.27-1.83-.47-.09-.03-.18-.05-.27-.07-.36-.08-.72-.16-1.08-.23-.21-.04-.41-.07-.62-.09-.22-.02-.43-.04-.65-.07-.31-.04-.62-.04-.93-.03-.05,0-.1,0-.15.02-.3.06-.31.02-.31.36,0,.35.04.7.15,1.04.27.83.6,1.64,1.03,2.4.14.24.25.49.32.76.07.27.09.55.02.82-.04.16-.1.3-.19.44-.1.16-.2.31-.3.47-.05.07-.11.13-.17.19-.09.1-.19.19-.29.28-.01.01-.02.02-.04.04-.06.06-.15.07-.2.15-.05.08-.14.12-.21.18-.07.05-.13.11-.2.15-.12.09-.25.16-.37.25-.04.03-.08.05-.11.1-.01.02-.03.04-.06.05-.12.04-.19.17-.3.22-.04.02-.06.06-.09.09-.12.1-.23.23-.38.28-.04.02-.07.04-.09.08-.03.04-.07.07-.12.09-.09.04-.19.06-.29.06-.17,0-.34,0-.5,0-.06,0-.11-.02-.16-.06-.13-.11-.24-.23-.31-.39-.03-.06-.05-.12-.08-.18-.02-.05-.04-.11-.07-.16-.06-.12-.13-.21-.24-.29-.39-.27-.8-.49-1.24-.66-.31-.12-.64-.21-.96-.3-.38-.11-.76-.2-1.14-.3-.22-.06-.44-.12-.65-.18-.26-.07-.52-.15-.77-.23-.36-.11-.71-.26-1.04-.45-.43-.25-.81-.57-1.1-.99-.14-.2-.25-.42-.34-.64-.16-.39-.31-.78-.44-1.18-.18-.54-.31-1.1-.4-1.66-.01-.08-.01-.17-.02-.25,0-.16-.03-.32-.09-.47-.06-.17-.12-.35-.18-.52-.02-.06-.04-.11-.04-.17,0-.28,0-.55,0-.83,0-.07.02-.13.06-.19.02-.03.06-.05.09-.04.05.02.1.03.14.05.06.02.12.05.19.07.06.01.11.04.15.09.03.04.07.07.12.09.06.02.1.06.12.12.08.2.19.37.32.54.1.12.17.25.19.4.02.14.09.27.16.39.16.28.34.54.52.8.13.18.25.36.38.53.16.22.33.42.52.62.46.47,1,.81,1.63,1.02.43.14.87.26,1.31.35.27.06.54.1.82.15.69.13,1.37.32,2.02.61.18.08.35.17.52.26.1.06.21.06.32.03.2-.07.39-.16.55-.3.13-.11.23-.25.29-.41.08-.21.12-.44.13-.66,0-.08,0-.15,0-.23-.02-.3-.04-.6-.07-.9-.04-.43-.14-.86-.19-1.29-.01-.08-.02-.17-.03-.25-.01-.13-.03-.25-.04-.38,0-.04-.03-.06-.06-.06-.06,0-.12,0-.17.02-.23.05-.46.1-.68.17-.62.18-1.22.41-1.82.66-.32.13-.64.26-.95.39-.26.11-.52.19-.79.27-.13.04-.26.07-.4.07-.15,0-.3,0-.45,0-.12,0-.23-.02-.35-.05-.42-.12-.83-.27-1.21-.5-.19-.12-.38-.25-.54-.41-.08-.07-.15-.16-.22-.24-.11-.14-.16-.29-.16-.47,0-.07,0-.13,0-.2,0-.08.05-.13.12-.14.19-.03.38-.06.58-.06.34,0,.69-.01,1.03-.04.33-.03.65-.06.98-.06.23,0,.45-.05.68-.08.07,0,.15-.03.22-.02.28,0,.55-.05.83-.08.09,0,.18-.02.28-.02.19,0,.39-.01.57-.06.13-.03.26-.05.4-.05.1,0,.2-.02.3-.04.17-.04.35-.07.52-.1.25-.04.5-.09.74-.13.09-.02.18-.03.27-.04.07-.01.15-.03.22-.04.02,0,.04-.03.05-.05,0-.02,0-.05,0-.07-.03-.47.02-.47-.47-.39-.1.02-.2.04-.29.08-.35.13-.7.23-1.05.35-.24.08-.48.15-.73.21-.25.06-.49.1-.75.09-.09,0-.19,0-.28,0-.26.02-.49-.07-.72-.2-.18-.1-.34-.24-.5-.38-.29-.25-.5-.57-.68-.9-.02-.03-.02-.06-.03-.09,0-.02.03-.07.06-.07.02,0,.05,0,.07,0,.28.02.57.05.85.07.19.01.37,0,.55-.05.06-.01.09-.05.11-.1.01-.05.03-.1.03-.15,0-.22,0-.44-.02-.65-.03-.23-.04-.45-.08-.68-.02-.11-.04-.21-.06-.32,0-.04-.05-.07-.1-.06-.1.02-.19.05-.29.1-.14.07-.27.13-.41.2-.36.18-.7.4-1.03.64-.18.13-.33.28-.43.49-.02.05-.05.09-.1.11-.16.12-.33.23-.52.3-.16.07-.33.11-.51.11-.11,0-.22,0-.33,0-.12,0-.24-.02-.35-.06-.41-.14-.77-.37-1.06-.7-.12-.14-.22-.3-.3-.46-.05-.11-.09-.22-.09-.34,0-.17,0-.34,0-.5,0-.05.05-.09.1-.09.09,0,.19,0,.28.02.23.03.45.02.68.02.24,0,.49-.05.72-.11.49-.13.97-.27,1.43-.48.06-.03.12-.05.19-.06.33-.08.66-.18.98-.32.13-.06.27-.09.41-.13.14-.04.27-.08.4-.15.05-.03.08-.07.08-.12,0-.06,0-.12,0-.18,0-.03-.03-.06-.07-.06-.07,0-.13.01-.2.03-.09.03-.17.06-.26.1-.09.04-.19.08-.28.12-.24.11-.46.06-.66-.09-.05-.03-.09-.07-.14-.11-.58-.47-1.15-.96-1.7-1.46-.08-.07-.16-.12-.25-.16-.14-.05-.26-.12-.37-.22-.11-.1-.13-.2-.06-.34,0-.01.02-.02.04-.03.01,0,.03,0,.05,0,.19,0,.39-.02.58-.05.2-.02.4-.04.6-.06.14-.02.27-.07.4-.13.37-.18.73-.38,1.08-.6.08-.05.18-.1.27-.14.21-.1.4-.21.57-.37.02-.02.05-.05.07-.07,0-.01,0-.03,0-.05,0,0-.01-.01-.02-.01-.03,0-.07-.01-.1,0-.1.01-.19.05-.28.1-.09.06-.19.11-.28.17-.2.14-.43.21-.68.25-.17.03-.32-.01-.45-.11-.29-.22-.58-.43-.83-.69-.13-.13-.26-.26-.4-.39-.19-.17-.39-.32-.61-.45-.05-.03-.1-.06-.15-.1-.05-.03-.05-.09,0-.13.09-.07.19-.14.31-.16.2-.05.41-.09.62-.11.3-.03.6-.05.91-.04.21,0,.42.01.63.01.15,0,.3,0,.45-.02.23-.02.45-.08.65-.19.05-.03.1-.06.14-.1.07-.06.1-.13.12-.22.04-.29.06-.58.06-.88,0-.1,0-.2,0-.3,0-.09.02-.18.03-.27,0-.03.03-.05.05-.05.12-.01.23-.03.35-.04.2,0,.4,0,.6.03.11.01.21.05.3.13.12.1.22.23.32.36.06.08.08.18.1.28,0,.05.02.1.03.15,0,.03.04.05.07.06.02,0,.05,0,.07,0,.2,0,.4,0,.6,0,.22-.02.44,0,.65.02.24.02.49.04.73.08.22.03.39.14.52.32.02.03.04.07.05.11.04.11.05.23.04.35,0,.03-.03.07-.06.07-.02,0-.05.02-.07.02-.12.01-.23.03-.35.04-.09,0-.18,0-.28,0-.39-.01-.77.05-1.15.12-.12.02-.23.05-.34.07-.16.03-.31.06-.45.16-.04.03-.09.04-.14.06-.08.03-.14.1-.17.18-.04.14-.06.28-.02.42,0,.02.04.03.06.03.11,0,.21-.04.31-.09.07-.03.13-.07.2-.11.15-.07.3-.15.45-.22.28-.13.57-.2.88-.2.18,0,.37,0,.55,0,.28,0,.52.13.72.32.06.06.09.14.09.23,0,.13,0,.25.01.38,0,.13.02.27.02.4,0,.27,0,.54.02.81.02.33-.1.61-.28.87-.1.14-.22.28-.35.39-.15.13-.31.25-.49.36-.12.07-.24.13-.37.17-.08.02-.16.05-.23.1-.04.03-.09.04-.14.05-.12.02-.25.03-.38.04-.21.01-.42.03-.63.05-.17.01-.3.09-.43.19-.05.04-.06.1-.06.16,0,.04.02.06.06.07.03.01.06.02.1.02.17,0,.34.02.5.01.44,0,.44-.02.94-.14.32-.07.63-.16.95-.25.18-.05.36-.09.55-.08.03,0,.06.05.05.07-.02.04-.03.08-.06.11-.1.15-.23.27-.36.38-.31.27-.65.47-1.01.66-.42.22-.85.41-1.28.6-.15.07-.3.14-.45.22-.05.02-.08.06-.09.11-.03.32-.12.63-.13.95,0,.04-.01.08-.02.12-.01.07-.03.13-.04.2-.03.27-.06.55-.09.83,0,.08.02.1.1.1.19,0,.37,0,.55-.03.27-.04.55-.1.82-.15.17-.03.34-.07.52-.09.04,0,.08-.01.12-.02.33-.08.65-.15.98-.23.09-.02.18-.05.26-.1.08-.04.09-.15.04-.22,0-.01-.03-.03-.04-.03-.07,0-.13-.02-.2-.01-.29.03-.58.07-.87.14-.31.07-.63.1-.95.1-.03,0-.05,0-.08,0-.16,0-.29-.06-.39-.19-.06-.08-.07-.2-.01-.28.02-.03.05-.07.08-.09.12-.09.24-.19.36-.27.15-.1.31-.2.47-.29.42-.24.83-.47,1.25-.7.29-.16.58-.33.86-.52.13-.09.26-.19.38-.29.12-.09.22-.2.32-.32.02-.03.04-.05.06-.08.06-.09.14-.11.24-.1.12.01.23.04.34.08.25.11.48.24.68.43.06.06.12.11.19.17.04.04.09.04.14.03.13-.02.24-.07.35-.14.09-.05.17-.1.26-.16.11-.07.23-.14.34-.21.04-.03.09-.04.11-.09-.04-.03-.08-.07-.12-.09-.05-.03-.11-.05-.16-.07-.04-.02-.08-.04-.11-.06-.18-.13-.38-.22-.56-.33-.06-.04-.13-.03-.19.02-.05.04-.1.09-.15.14-.07.08-.16.11-.26.13-.27.04-.54.03-.8-.01-.11-.02-.21-.05-.31-.09-.05-.02-.09-.05-.14-.06-.35-.13-.56-.42-.77-.7-.02-.03-.04-.08-.04-.12-.01-.07-.02-.13-.02-.2,0-.13.01-.27.02-.4,0-.04.03-.06.06-.07.08-.03.16-.06.24-.06.13,0,.25,0,.38,0,.08,0,.15,0,.23,0,.23-.05.47-.04.7-.05.05,0,.1,0,.15,0,.23-.03.45-.04.68-.03.16,0,.32-.01.48-.02.07,0,.13-.02.2-.02.45-.02.88-.11,1.31-.24.15-.05.3-.1.45-.17.19-.09.37-.2.51-.37.02-.03.02-.07,0-.09-.13-.08-.26-.11-.41-.08-.11.02-.21.05-.32.06-.11.02-.22.03-.33.03-.14,0-.26-.05-.35-.16-.09-.11-.18-.23-.25-.34-.07-.11-.12-.24-.12-.38,0-.08,0-.15.04-.22.04-.08.08-.17.12-.25.06-.12.13-.24.2-.35.17-.29.3-.6.44-.91.02-.05.03-.1.04-.14,0-.01-.01-.03-.02-.04,0,0-.02,0-.02,0-.19-.02-.37-.01-.55.04-.19.05-.37.11-.55.17-.07.02-.14.05-.21.09-.25.14-.51.25-.77.38-.05.02-.08.06-.09.11-.06.25-.12.51-.18.76q-.12.46-.32.87s-.05.09-.07.13c-.14.3-.37.54-.61.76-.04.03-.09.05-.14.06-.08,0-.15-.04-.17-.12-.02-.13-.03-.27,0-.4.08-.28.09-.56.09-.85,0-.21,0-.42,0-.63,0-.18-.03-.35-.07-.52-.06-.27-.21-.47-.45-.61-.05-.03-.1-.06-.15-.09-.02-.01-.04-.04-.04-.06,0-.06,0-.12,0-.18,0-.02.01-.05.03-.07.18-.26.38-.51.63-.72.14-.11.29-.2.45-.27.08-.03.16-.04.24.01.07.04.14.09.21.14.1.07.2.16.3.23.07.05.15.11.23.15.17.1.35.12.53.09.09-.02.18-.04.27-.07.17-.06.35-.12.52-.19.26-.11.48-.27.69-.46.07-.07.14-.14.22-.21.05-.05.11-.08.18-.07.02,0,.03,0,.05,0,.39,0,.79,0,1.18,0,.1,0,.2,0,.3.03.14.03.25.11.32.23.12.2.2.42.2.67,0,.2-.04.4-.1.59-.01.05-.04.09-.07.13-.16.17-.28.37-.41.57-.14.21-.22.45-.27.7,0,.04,0,.08,0,.13,0,.03.04.06.06.07,0,0,.02,0,.02,0,.29.02.57-.02.83-.15.17-.08.34-.15.52-.19.15-.03.23-.13.27-.27.04-.13.06-.26.04-.4-.02-.15-.03-.3-.05-.45,0-.03,0-.07,0-.1,0-.11.02-.18.16-.14,0,0,.02,0,.02,0,.06,0,.1-.01.11-.07,0-.02.01-.05.02-.07.02-.07.04-.15.06-.22,0-.03.05-.07.07-.06.02,0,.05.02.06.04.03.03.04.07.06.11.08.16.16.31.26.46.05.07.07.15.08.24.06.4.17.79.27,1.18.08.3.16.6.21.91,0,.04.02.08.02.12,0,.09-.03.16-.09.23,0,0-.01.01-.02.02-.2.19-.43.24-.7.16-.13-.04-.26-.07-.39-.12-.28-.1-.56-.11-.84-.07-.02,0-.03.01-.05.02-.02,0-.03.05-.01.07.02.02.04.05.07.07.1.08.21.14.32.2.31.17.5.44.59.78,0,.02,0,.05.01.07,0,.06,0,.11-.05.16-.28.31-.58.61-.91.86-.34.26-.68.52-1.02.78-.03.02-.05.04-.07.07,0,0,0,.03,0,.04,0,0,.01.01.02.02.35.2.71.38,1.09.52.28.11.57.21.85.3.18.06.37.1.56.15.1.03.2.05.29.07.14.03.27.08.4.14.11.06.23.09.36.08.26,0,.52.03.77.09.34.07.68.13,1.02.18.22.03.43.07.65.11.1.02.2.03.3.04.13.02.27.04.39.09.06.03.07.13.02.17-.04.03-.08.06-.13.08-.31.12-.62.25-.96.27-.06,0-.12.02-.17.05-.1.05-.21.07-.31.08-.17.02-.33.05-.5.07-.13.02-.27.04-.4.06-.15.02-.3.04-.45.08-.12.03-.25.04-.37.05-.17,0-.33.02-.5.03-.23.02-.45.04-.68.04-.42,0-.82-.08-1.19-.26-.22-.11-.43-.23-.63-.37-.39-.28-.78-.56-1.17-.84-.08-.06-.15-.13-.23-.2-.1-.08-.2-.16-.29-.24-.05-.04-.11-.05-.17-.05-.08,0-.17.01-.25.04-.1.03-.2.08-.3.13-.17.09-.34.19-.5.29-.04.02-.07.05-.11.07-.11.07-.18.18-.19.31,0,.06-.02.12-.03.17,0,.04-.01.08-.02.12-.03.13-.13.22-.27.23-.1,0-.2,0-.3-.01-.08-.02-.17-.03-.25-.04-.09-.02-.18,0-.27.02-.15.04-.29.09-.42.16-.13.07-.24.15-.3.29,0,.02,0,.05-.01.07,0,0,0,.02.01.02.02,0,.03.01.05.01.33.01.65-.03.97-.13.29-.09.59-.15.88-.2.16-.03.32-.03.47-.06.21-.03.42-.05.62-.08.27-.04.52,0,.75.14.07.04.13.07.19.12.2.15.4.3.6.46.03.03.06.06.1.08.22.19.31.43.31.71,0,.06-.03.1-.07.13-.04.03-.09.05-.13.07-.16.06-.32.09-.49.09-.42,0-.84,0-1.26-.04-.11-.01-.22-.01-.33-.01-.38,0-.76,0-1.13,0-.35,0-.7.05-1.04.15-.14.04-.27.09-.39.16-.05.03-.08.06-.08.12,0,.11,0,.22,0,.33,0,.06.03.11.08.15.07.05.15.08.23.09.26.04.52.07.78.06.17,0,.34,0,.5,0,0,0,0,0,0,0Zm-5.76-6.56c.19-.02.4-.02.57-.19.01-.01.03-.02.04-.03.14-.07.24-.18.32-.31.09-.12.16-.25.23-.39.11-.25.21-.51.3-.77.03-.09.06-.18.06-.27.02-.26,0-.27-.26-.25-.18.02-.35.11-.54.11-.02,0-.05.01-.07.02-.08.04-.17.07-.27.07-.03,0-.07.01-.1.03-.07.03-.14.06-.2.1-.06.03-.11.07-.17.11-.06.04-.08.11-.07.18.01.05.03.1.04.15.01.05.04.09.09.11.13.07.25.14.37.2.01,0,.03.01.04.03.13.14.24.28.22.49,0,.12-.12.27-.25.26-.08,0-.17,0-.25.01-.07,0-.13.02-.2.04-.04.01-.07.04-.09.08-.01.04-.02.08-.02.12,0,.04.03.08.08.08.03,0,.07,0,.12,0Zm7.16.81c.13.01.19,0,.26-.05.15-.11.28-.25.4-.38.05-.05.05-.12.04-.19,0-.03-.04-.07-.07-.06-.07.02-.15.04-.22.06-.16.04-.32.09-.49.12-.18.03-.34.09-.5.16-.01,0-.03.02-.04.03-.02.02-.02.07,0,.09.16.09.33.16.51.22.05.01.1.02.1.02Zm-8.71-1.81s0-.06-.01-.08c0-.05-.06-.08-.11-.07-.05,0-.09.03-.13.06-.18.14-.36.27-.54.41-.08.06-.16.12-.24.19-.04.04-.09.08-.13.12-.04.04-.07.09-.07.16,0,.01.02.04.03.04.07,0,.13-.01.19-.05.1-.07.21-.14.31-.21.2-.14.4-.28.63-.36.03-.01.05-.04.06-.07,0-.04.01-.08.02-.12Z"/></svg>