<?xml version="1.0" encoding="UTF-8"?><svg id="Layer_2" xmlns="http://www.w3.org/2000/svg" viewBox="0 0 25 25"><path d="m16.91,1c.12,0,.23,0,.35,0,.16,0,.3.04.43.13.13.1.26.19.39.29.26.21.5.43.74.67.11.12.22.24.31.37.09.13.14.27.14.43,0,.13,0,.25-.02.37-.04.16-.11.3-.22.43-.13.15-.27.29-.43.4-.17.12-.34.23-.52.34-.35.22-.7.44-1.03.69-.22.17-.43.35-.63.54-.1.1-.21.2-.31.3-.22.23-.47.45-.7.66-.14.13-.29.24-.43.36-.16.13-.34.23-.55.26-.07.01-.14.04-.19.09-.01.01-.01.06,0,.07.02.02.04.03.06.05.06.04.12.07.18.11.19.11.35.25.49.42.07.08.12.16.15.25.05.16.09.33.14.49.03.11.02.21.02.32,0,.22,0,.43,0,.65,0,.05.01.11.02.16,0,.01.02.02.04.03.02,0,.04,0,.05,0,.05-.02.1-.03.15-.06.39-.18.8-.33,1.19-.49.5-.2.99-.41,1.49-.62.28-.12.57-.21.87-.28.11-.03.22-.06.34-.09.15-.04.29-.1.4-.21.04-.04.08-.07.13-.1.02-.01.05-.03.07-.03.09,0,.18-.01.27.02.39.14.77.3,1.11.54.23.17.44.36.59.62.07.12.11.24.16.37,0,.02.01.05.02.08.01.3.02.34-.3.29-.27-.04-.54-.11-.82-.17-.3-.06-.6-.1-.91-.07-.32.02-.62.11-.9.25-.07.03-.14.07-.22.11-.16.08-.32.16-.48.23-.1.05-.21.09-.3.17-.04.03-.06.1-.04.15.03.07.06.15.11.22.12.19.26.36.43.52.12.11.23.23.35.33.25.21.32.49.26.8-.02.1-.04.19-.06.29-.04.24-.08.48-.12.72-.01.07-.01.14-.01.21,0,.17-.01.34-.03.51-.02.16-.02.32-.02.48,0,.5,0,1,0,1.51,0,.19,0,.38.03.56.02.16.02.32.02.48,0,.53,0,1.06.01,1.59,0,.1,0,.2.02.29,0,.03.01.07,0,.11-.03.13-.02.27-.02.4,0,.28-.02.56-.02.83,0,.28-.04.55-.09.83-.03.17-.08.33-.14.49-.08.19-.17.37-.26.56,0,.02-.02.03-.03.04-.02.04-.08.05-.12.04-.25-.09-.48-.21-.68-.38-.35-.29-.61-.65-.77-1.09-.13-.37-.22-.74-.22-1.13,0-.1-.01-.2-.02-.29,0-.03,0-.06,0-.08.04-.16.02-.32.03-.48,0-.04,0-.07.01-.11.02-.11.12-.19.23-.19.08,0,.16,0,.24,0,.06,0,.1-.03.1-.1,0-.33.02-.66-.02-.99-.02-.12,0-.25-.02-.38-.01-.16,0-.32-.03-.48,0-.29,0-.57,0-.86,0-.06.01-.13.01-.19,0-.44,0-.88,0-1.32,0-.03,0-.05,0-.08.02-.34-.03-.68-.07-1.02-.02-.19-.01-.38-.02-.56,0-.13,0-.25-.01-.38-.01-.16-.07-.32-.14-.46-.04-.07-.09-.13-.15-.19-.04-.04-.09-.06-.15-.06-.15-.01-.28.03-.4.13-.07.06-.13.13-.19.19-.09.09-.2.15-.32.19-.08.02-.16.04-.24.02-.09-.02-.18-.02-.27-.01-.06,0-.1.04-.12.1-.03.11-.06.23-.06.34,0,.12,0,.23,0,.35,0,.27-.04.54-.09.8-.05.26-.11.53-.14.79-.02.18-.07.35-.11.53-.22.92-.51,1.81-.87,2.68-.27.65-.57,1.3-.92,1.91-.39.68-.81,1.33-1.31,1.94-.41.51-.88.97-1.4,1.37-.21.16-.42.34-.62.51-.19.16-.39.32-.6.45-.11.07-.22.11-.36.1-.16,0-.32,0-.48,0-.07,0-.14-.02-.21-.05-.15-.07-.27-.17-.37-.31-.06-.08-.11-.16-.17-.24-.08-.12-.19-.21-.32-.28-.21-.11-.41-.22-.62-.31-.44-.2-.88-.41-1.31-.62-.28-.14-.55-.3-.81-.48-.23-.17-.44-.37-.59-.62-.08-.12-.14-.25-.18-.39-.08-.28-.13-.56-.11-.85,0-.08.04-.13.12-.16.03,0,.05-.02.08-.03.08-.03.16-.04.24,0,.16.06.32.09.49.11.13.02.26.04.39.09.04.02.08.04.13.04.16,0,.29.07.43.13.05.02.1.04.15.05.18.06.37.09.54.16.02,0,.03.01.05.01.11.02.21.03.32.06.09.03.18.08.28.1.03,0,.07.02.1.02.11-.03.21,0,.32.03.37.09.75.17,1.12.29.09.03.19.03.29.03.12,0,.23,0,.35,0,.06,0,.11-.02.15-.05.24-.17.48-.34.7-.55.57-.54,1.05-1.15,1.43-1.84.17-.31.35-.63.5-.95.1-.22.19-.44.27-.67.03-.09.07-.18.11-.27.14-.29.24-.6.32-.91.01-.04.02-.09.02-.13,0-.05-.01-.09-.05-.12-.06-.04-.11-.09-.18-.12-.18-.11-.38-.17-.58-.2-.25-.03-.5-.06-.75-.06-.2,0-.39.04-.59.05-.17,0-.34.05-.5.11-.06.02-.12.04-.18.07-.09.04-.18.08-.27.11-.08.03-.12.1-.13.19,0,.07-.01.14-.02.21,0,.31-.01.63.05.94,0,.03,0,.07.01.11,0,.32.07.62.13.93.04.19.07.39.09.58.02.18.05.36.07.53.04.25.03.5-.02.75-.05.24-.18.41-.38.52-.28.15-.3.15-.58.02-.16-.08-.3-.2-.43-.32-.09-.09-.16-.19-.23-.29-.14-.21-.26-.43-.36-.66-.03-.06-.04-.12-.06-.18-.03-.09-.03-.18,0-.26.04-.12.08-.24.12-.36.12-.37.18-.75.15-1.14-.01-.14-.04-.28-.08-.42-.01-.04-.07-.07-.11-.06-.16.03-.31.09-.43.2-.07.06-.13.12-.2.18-.19.19-.38.38-.58.56-.22.21-.45.41-.71.57-.14.09-.28.16-.44.2-.21.05-.43.05-.64-.02-.03,0-.05-.02-.08-.03-.49-.23-.99-.43-1.47-.67-.06-.03-.13-.07-.19-.11-.1-.07-.12-.24-.05-.34.24-.32.57-.48.96-.52.08,0,.16-.01.24-.03.18-.03.35-.09.51-.17.26-.14.52-.28.78-.42.36-.19.71-.38,1.07-.57.11-.06.23-.11.34-.16.08-.04.16-.08.24-.12,0,0,.02-.02.01-.02,0-.01-.02-.03-.03-.04-.05-.02-.1-.03-.15-.04-.11-.03-.22-.06-.34-.09-.09-.02-.17-.07-.23-.14-.06-.07-.13-.13-.18-.2-.12-.16-.26-.3-.41-.42-.26-.22-.5-.47-.72-.72-.06-.07-.12-.13-.18-.2-.4-.43-.77-.87-1.15-1.31-.09-.11-.18-.23-.24-.36-.03-.06-.03-.12,0-.18.12-.28.35-.42.64-.46.15-.02.3-.02.46-.01.2,0,.39,0,.59-.04.05-.01.11-.02.16-.03.09-.02.18-.02.27,0,.1.02.19.03.29.06.14.03.27.02.39-.04.3-.13.57-.29.81-.51.03-.02.05-.06.06-.09.06-.13.07-.26.05-.39-.03-.16-.06-.32-.14-.46-.03-.05-.08-.07-.14-.03-.09.06-.18.12-.26.19-.08.07-.16.15-.24.22-.05.05-.1.1-.16.14-.29.21-.33.21-.65.19-.07,0-.14-.03-.21-.05-.17-.05-.31-.14-.44-.25-.09-.07-.18-.15-.27-.22-.31-.27-.65-.51-1.01-.71-.19-.11-.35-.24-.5-.4-.04-.04-.07-.08-.1-.13-.11-.18-.1-.2.04-.34.11-.12.24-.21.38-.3.08-.05.16-.08.25-.08.05,0,.11,0,.16,0,.24,0,.48-.04.72-.1.23-.06.46-.14.69-.23.3-.12.57-.3.81-.52.12-.11.14-.22.07-.36-.03-.06-.08-.12-.12-.18-.08-.09-.18-.17-.29-.24-.14-.1-.27-.2-.41-.31-.06-.04-.11-.1-.16-.14-.05-.04-.08-.09-.11-.15-.12-.27-.15-.55-.06-.84.03-.09.07-.11.14-.11.21,0,.41,0,.62.03.09.01.18.02.27.02.41.03.82.1,1.21.22.27.08.52.19.76.33.11.07.19.16.25.28.03.07.06.13.09.2.02.04.04.08.06.12.04.07.1.1.18.08.2-.04.38-.14.47-.33.09-.2.25-.32.42-.44.1-.07.21-.1.33-.08.55.09,1.1.17,1.61.4.1.04.2.09.29.14.23.13.39.31.52.53.04.08.08.16.12.24.02.03.03.07.04.1.04.22-.06.42-.27.5-.17.07-.35.08-.53.04-.2-.05-.4-.11-.6-.17-.23-.07-.46-.11-.69-.09-.43.04-.82.16-1.15.46-.19.17-.29.38-.32.63-.01.12-.04.23-.04.35-.03.35-.01.7.04,1.05.01.07.06.11.13.11.12,0,.23-.04.33-.1.17-.09.31-.21.45-.34.06-.06.13-.12.19-.19.16-.17.37-.25.6-.27.21-.02.43-.01.65,0,.17.01.33.07.49.14.2.09.38.2.56.33.08.06.15.13.21.2.09.1.18.2.27.3.07.08.14.16.2.25.08.12.09.25.04.39-.03.08-.06.17-.1.25-.18.4-.4.78-.62,1.16-.32.54-.67,1.06-1.02,1.59-.08.12-.18.2-.31.24-.07.02-.14.04-.21.05-.28.04-.55.1-.81.21-.18.07-.35.15-.49.27-.05.04-.08.09-.09.16,0,.08,0,.16,0,.24,0,.04.05.08.1.07.17-.02.34-.04.5-.07.19-.04.39-.08.58-.13.13-.03.26-.07.38-.12.2-.08.39-.12.6-.1.19.01.38,0,.56.05.05.01.11.01.16.02.12,0,.23.04.34.07.14.04.28.07.42.1.05.01.08-.01.1-.07.06-.17.11-.34.14-.52.07-.37.13-.74.19-1.11,0-.04.01-.07.02-.11.03-.39.08-.79.05-1.18-.03-.46-.06-.93-.16-1.39-.06-.26-.13-.52-.22-.77-.07-.18-.16-.34-.29-.48-.16-.17-.33-.33-.5-.49-.09-.08-.17-.16-.23-.26-.02-.03-.04-.06-.05-.09-.04-.08,0-.16.03-.23,0-.01.03-.03.04-.03.04,0,.09-.01.13-.02.18-.02.35-.09.49-.2.23-.18.44-.36.64-.58.22-.24.44-.47.69-.68.12-.1.23-.22.35-.34.07-.07.12-.15.17-.24.08-.15.16-.3.24-.45.03-.06.06-.11.07-.17.03-.13.08-.24.15-.34.06-.19.2-.34.31-.5.09-.13.16-.26.24-.39.15-.24.29-.47.44-.71.06-.1.11-.21.16-.31.04-.08.06-.17.04-.26-.05-.18-.02-.36.01-.53,0-.03.01-.05.02-.08.05-.17.12-.21.27-.21.14,0,.29,0,.43,0h0Zm-7.03,9.84s0,0,0,0c0-.08,0-.16,0-.24,0-.22-.03-.43-.06-.64-.02-.1-.09-.14-.17-.1-.14.07-.27.13-.42.18-.03.01-.07.03-.1.04-.06.03-.1.08-.1.15,0,.13,0,.25,0,.38,0,.22,0,.45,0,.67,0,.13.04.16.16.17.04,0,.09,0,.13.01.08.02.16.04.23.06.05.02.07.09.04.14-.02.04-.05.08-.07.11-.08.11-.16.22-.25.32-.08.09-.09.19-.08.3,0,.02.04.04.06.03.02-.01.05-.02.07-.04.09-.1.18-.2.26-.31.19-.27.3-.57.29-.91,0-.11,0-.22,0-.32Zm-2.51.97c0-.08-.01-.15-.02-.23,0-.04-.07-.07-.1-.06-.03.02-.07.03-.09.05-.14.14-.28.28-.41.42-.07.07-.12.16-.17.24-.03.05-.08.1-.06.17,0,.03.09.02.19-.04.02-.01.05-.03.07-.04.16-.1.32-.19.51-.24,0,0,.02,0,.02-.01.01-.01.03-.03.03-.04.01-.08.02-.16.03-.23Zm.18,1.3s-.04-.07-.07-.08c-.05-.01-.09,0-.13.01-.12.06-.19.16-.23.28,0,.01,0,.04.02.05.09.07.21.07.29,0,.07-.06.1-.14.12-.23,0,0,0-.02,0-.03Z"/></svg>