<?xml version="1.0" encoding="UTF-8"?><svg id="Layer_2" xmlns="http://www.w3.org/2000/svg" viewBox="0 0 25 25"><path d="m12.26,19c0-.37,0-.74,0-1.11,0-.28,0-.55,0-.83,0-.08,0-.17.02-.25.05-.33.04-.66.04-.99,0-.06,0-.13,0-.19,0-.1.03-.18.07-.26.07-.12.16-.17.29-.16.16,0,.31,0,.47-.04.05-.01.11-.01.16-.02.27-.02.53-.05.79-.11.04,0,.09-.02.13-.03.31-.11.63-.22.92-.37.03-.02.06-.04.09-.06.03-.02.05-.07.03-.1-.02-.04-.03-.09-.05-.13-.07-.12-.12-.25-.17-.38-.06-.14-.09-.28-.1-.43-.01-.16-.04-.33-.07-.49-.03-.16-.04-.31-.04-.47,0-.06,0-.13,0-.19,0-.04-.03-.07-.07-.07-.06,0-.13,0-.19,0-.24.05-.46.14-.66.28-.31.22-.57.49-.82.78-.15.17-.29.36-.41.55-.08.12-.16.23-.24.34-.11.15-.24.28-.38.4-.2.18-.43.23-.69.16-.29-.08-.55-.19-.81-.35-.14-.09-.29-.17-.43-.25-.03-.02-.08,0-.09.04-.04.21-.09.41-.13.62-.06.28-.07.57-.07.85,0,.05,0,.09,0,.14-.05.25-.02.5-.03.74,0,.03,0,.06,0,.08.04.2.03.4.03.61,0,.13,0,.26,0,.39,0,.21,0,.42.07.63.04.13.04.27.04.41,0,.37.02.74,0,1.1,0,.09-.02.18-.06.27-.18.35-.4.68-.67.98-.03.03-.07.06-.1.1-.12.12-.25.24-.37.37-.24.28-.5.54-.76.8-.04.04-.08.08-.12.11-.04.03-.08.05-.12.06-.23.05-.46.13-.69.2-.23.07-.47.1-.71.1-.12,0-.21-.04-.31-.1-.15-.1-.28-.2-.41-.33-.09-.09-.15-.18-.2-.3-.03-.07-.05-.14-.07-.21-.03-.09-.07-.17-.1-.26-.04-.1-.11-.19-.19-.27-.15-.14-.29-.28-.45-.41-.33-.29-.66-.59-.98-.9-.18-.18-.34-.36-.5-.55-.35-.42-.56-.9-.69-1.43-.01-.05-.01-.11-.01-.16,0-.53,0-1.07,0-1.6,0-.18.04-.35.07-.52.05-.31.12-.61.18-.92.05-.31.1-.62.15-.93.04-.3.05-.6.05-.91,0-.16,0-.31,0-.47,0-.25-.03-.5-.1-.74-.01-.04-.02-.09-.02-.14,0-.07.04-.12.1-.15.05-.02.11-.02.16.02.12.1.22.22.3.35.2.31.37.63.49.99.18.57.33,1.15.44,1.74.1.54.21,1.08.33,1.62.1.46.23.91.43,1.34.15.32.36.58.63.79.28.22.58.42.88.62.03.02.06.04.1.06.24.1.25.13.44-.06.22-.22.42-.47.57-.74.06-.12.11-.25.16-.38.17-.46.28-.93.37-1.41,0-.03,0-.05,0-.08,0-.27.04-.53.07-.8.03-.24.06-.47.09-.71.02-.19.03-.39.04-.58.01-.21.03-.42.07-.63,0-.05.02-.11.02-.16.02-.21.03-.42.06-.63.02-.16.04-.31.07-.46.06-.31.11-.61.15-.93,0-.04.01-.08.03-.1.06-.06.08-.15.1-.23.13-.42.28-.84.46-1.24.1-.23.18-.46.27-.69.05-.13.11-.25.21-.35.09-.09.14-.21.18-.34.04-.12.08-.25.12-.37.06-.19.15-.36.26-.52.08-.12.18-.23.29-.33.18-.15.31-.34.4-.56.04-.1.06-.21.1-.32.01-.04.02-.09.04-.13.13-.18.23-.37.38-.54.39-.44.8-.87,1.23-1.27.11-.11.22-.22.33-.33.18-.18.38-.35.58-.51.13-.1.26-.21.39-.31.33-.26.67-.48,1.02-.71.22-.14.43-.28.67-.39.07-.03.13-.07.19-.11.14-.09.27-.19.36-.33.05-.07.1-.13.16-.19.11-.11.24-.17.4-.16.12,0,.24,0,.36,0,.06,0,.11.02.15.06.08.08.17.16.25.26.42.51.79,1.04,1.13,1.6.19.32.32.66.43,1.01.06.2.07.4.04.6-.03.2-.05.4-.06.6,0,.1-.04.18-.09.25-.11.14-.23.29-.35.43-.12.14-.26.25-.43.34-.18.09-.36.19-.54.28-.38.19-.79.31-1.19.43-.33.1-.66.17-.98.28-.03,0-.05.02-.08.03-.02,0-.04.05-.03.07.02.04.04.09.07.12.06.06.12.11.19.16.1.07.19.14.29.2.2.12.37.28.53.44.09.1.19.2.28.3.03.03.06.04.1.05.16.02.31,0,.47,0,.15-.02.29-.05.44-.07.22-.03.43-.08.65-.12.24-.04.49-.08.74-.11.05,0,.11,0,.17-.01.17,0,.33-.02.49-.04.14-.02.3-.02.44,0,.13.02.26.03.38.03.16,0,.31.04.46.08.22.05.41.16.59.3.26.2.47.44.61.74.04.09.07.17.06.27,0,.13,0,.26,0,.39,0,.07-.03.12-.08.17-.1.1-.24.14-.37.16-.12.01-.24,0-.36-.02-.11-.02-.22-.05-.32-.07-.07-.01-.15-.02-.22-.02-.13,0-.26-.02-.39-.01-.37,0-.74,0-1.1.05-.18.03-.37.04-.55.07-.36.06-.72.13-1.08.2-.27.05-.54.11-.8.21-.09.03-.18.04-.27.04-.27,0-.41.11-.49.39-.03.13-.05.25-.07.38-.03.21-.03.42-.03.63,0,.09.01.18.02.27,0,.06.01.13.01.19,0,.24.05.48.08.71,0,.02,0,.04.01.05.01.05.05.08.1.08.29.01.56-.07.82-.21.1-.05.19-.12.3-.14.06-.01.11-.06.17-.09.11-.07.22-.12.36-.12.11,0,.22-.02.33-.04.06,0,.11,0,.16.02.15.05.3.1.45.14.43.13.85.3,1.25.5.07.04.14.08.19.15.14.19.18.27.23.52.02.11.07.21.06.32.06.17.05.35.05.52,0,.16,0,.31.02.47.01.08,0,.16,0,.25,0,.04-.02.07-.02.11,0,.32,0,.64,0,.97.04.23.03.46.04.69.01.31,0,.62-.04.94-.04.28-.05.57-.07.85-.03.28-.06.57-.1.85-.04.31-.11.62-.18.92-.06.27-.15.53-.24.79-.04.11-.1.22-.15.33-.07.16-.19.27-.33.36-.06.04-.13.07-.2.08-.24.03-.47.06-.72.05-.16,0-.31-.05-.44-.15-.12-.1-.24-.2-.36-.31-.15-.13-.3-.27-.45-.4-.03-.02-.06-.05-.09-.07-.06-.04-.13-.06-.21-.05-.63.1-1.25.22-1.85.42-.18.06-.36.13-.54.2-.2.08-.38.18-.55.31-.13.1-.26.2-.41.28-.12.06-.23.1-.37.09-.21,0-.42,0-.64,0-.06,0-.11-.03-.13-.08-.03-.06-.06-.12-.08-.18-.05-.14-.11-.27-.16-.41-.03-.07-.04-.14-.04-.22,0-.07-.02-.14-.03-.22-.03-.13-.06-.25-.12-.36-.04-.08-.07-.17-.1-.26-.08-.23-.15-.45-.14-.7,0-.13,0-.26,0-.39,0-.56,0-1.12,0-1.69Zm6.16-1.26c-.01-.21-.02-.49-.04-.76-.01-.13-.03-.26-.03-.38,0-.16,0-.31-.09-.45-.02-.03-.02-.07-.03-.11-.07-.28-.17-.54-.27-.81-.05-.12-.1-.24-.19-.33-.04-.04-.09-.06-.15-.06-.13,0-.26.03-.38.08-.29.1-.57.21-.85.31-.03,0-.05.02-.08.03-.17.08-.33.16-.5.24-.09.04-.18.09-.27.14-.23.13-.44.3-.66.45-.04.03-.09.07-.12.12-.05.07-.1.13-.16.18-.05.05-.1.1-.15.16-.19.24-.32.52-.45.79-.02.04-.02.09-.03.13,0,.03.02.05.04.06.05.02.1.04.16.03.17-.02.34-.07.5-.16.09-.05.18-.08.28-.11.23-.06.46-.14.68-.22.15-.06.31-.11.47-.16.15-.05.3-.09.46-.1.22,0,.44,0,.66,0,.09,0,.18.02.27.06.21.1.27.19.26.38,0,0,0,.02,0,.03,0,.17-.06.28-.22.34-.09.03-.17.07-.25.11-.03.01-.07.03-.11.03-.11,0-.2.04-.29.09-.22.1-.43.2-.68.21-.05,0-.09.02-.13.03-.2.06-.41.12-.61.19-.09.03-.18.07-.25.12-.12.09-.25.15-.39.2-.1.03-.19.08-.27.13-.18.1-.35.2-.52.31-.12.07-.22.17-.29.29-.01.02-.02.05-.03.08,0,.02.01.06.03.06.14.02.28.01.41-.01.16-.03.32-.07.48-.11.44-.14.87-.29,1.33-.37,0,0,.02,0,.03,0,.17-.07.36-.08.54-.09.23,0,.46.02.69.05.02,0,.04,0,.05.01.06.02.12.11.11.18-.03.14-.05.29-.1.43-.08.21-.21.37-.4.47-.19.1-.39.16-.61.17-.21,0-.42,0-.63.01-.09,0-.18.02-.27.05-.21.06-.42.12-.63.18-.17.05-.33.12-.5.17-.17.06-.33.16-.51.21,0,0-.02,0-.02.01-.08.04-.12.12-.1.21.01.08.03.16.05.24.04.17.08.34.15.5.03.06.06.08.13.08.04,0,.07,0,.11,0,.12-.03.25-.05.37-.11.07-.03.14-.05.21-.07.35-.08.7-.17,1.05-.25.22-.05.45-.09.68-.12.23-.03.45-.07.69-.08.11,0,.22-.01.33-.04.14-.03.28-.08.37-.22.16-.24.29-.49.35-.78.02-.09.03-.18.06-.27.06-.15.08-.3.09-.46,0-.05,0-.11.02-.16.1-.29.12-.59.14-.9.02-.2.01-.4.02-.67Zm-7.48-6.51s0,.03,0,.04c0,.04.04.07.07.06.15-.04.29-.11.43-.18.12-.06.24-.13.37-.17.23-.07.44-.17.67-.26.24-.09.48-.19.72-.27.18-.06.36-.13.52-.25.05-.04.11-.06.17-.09.1-.05.19-.11.27-.18.13-.12.19-.26.16-.44-.03-.17-.09-.32-.18-.46-.07-.1-.13-.2-.2-.29-.08-.1-.16-.2-.24-.3-.07-.08-.18-.1-.28-.05-.06.03-.11.06-.16.1-.19.16-.38.32-.57.47-.08.06-.15.13-.23.19-.15.12-.3.24-.44.38-.18.19-.36.39-.54.59-.05.05-.09.12-.13.18-.07.11-.14.22-.21.33-.12.19-.19.4-.2.61Z"/></svg>