<?xml version="1.0" encoding="UTF-8"?><svg id="Layer_1" xmlns="http://www.w3.org/2000/svg" viewBox="0 0 25 25"><path d="M1.04,15.62c-.69-.67-1.04-1.6-1.04-2.81v-4.43H2.71v4.35c0,.59,.11,1.02,.32,1.29,.21,.27,.52,.4,.91,.4s.7-.13,.91-.4c.21-.27,.32-.7,.32-1.29v-4.35h2.67v4.43c0,1.2-.34,2.14-1.04,2.81-.69,.67-1.65,1-2.89,1s-2.2-.33-2.89-1Z"/><path d="M11.8,10.43v1.38h3.36v2.05h-3.36v2.58h-2.71V8.38h6.54v2.05h-3.83Z"/><path d="M16.49,8.38h3.97c.9,0,1.69,.16,2.37,.49,.69,.33,1.22,.79,1.6,1.4,.38,.61,.57,1.32,.57,2.14s-.19,1.53-.57,2.14c-.38,.61-.91,1.07-1.6,1.4-.69,.33-1.48,.49-2.37,.49h-3.97V8.38Zm3.85,5.93c.58,0,1.05-.17,1.4-.5s.52-.8,.52-1.41-.17-1.07-.52-1.41-.82-.5-1.4-.5h-1.14v3.82h1.14Z"/></svg>